<?xml version="1.0" encoding="UTF-8"?>
<svg version="1.1" xmlns="http://www.w3.org/2000/svg" width="1920" height="1080">
<path d="M0 0 C633.6 0 1267.2 0 1920 0 C1920 356.4 1920 712.8 1920 1080 C1286.4 1080 652.8 1080 0 1080 C0 723.6 0 367.2 0 0 Z " fill="#A8D5EF" transform="translate(0,0)"/>
<path d="M0 0 C1.98 0 3.96 0 6 0 C6 0.99 6 1.98 6 3 C6.66 3 7.32 3 8 3 C8 2.01 8 1.02 8 0 C9.98 0 11.96 0 14 0 C14 0.99 14 1.98 14 3 C15.32 3 16.64 3 18 3 C18 6.3 18 9.6 18 13 C18.99 13 19.98 13 21 13 C21.86112267 27.86871803 21.86112267 27.86871803 18.5625 32.4375 C17.716875 33.283125 16.87125 34.12875 16 35 C15.67 35 15.34 35 15 35 C14.67 37.31 14.34 39.62 14 42 C14.99 42 15.98 42 17 42 C17 42.99 17 43.98 17 45 C16.01 45 15.02 45 14 45 C14 45.99 14 46.98 14 48 C13.01 48 12.02 48 11 48 C11 48.99 11 49.98 11 51 C10.34 51 9.68 51 9 51 C8.67 51.99 8.34 52.98 8 54 C7.34 54 6.68 54 6 54 C6 54.66 6 55.32 6 56 C5.01 56 4.02 56 3 56 C3 56.99 3 57.98 3 59 C2.01 59 1.02 59 0 59 C0 58.34 0 57.68 0 57 C-0.99 57 -1.98 57 -3 57 C-3 56.01 -3 55.02 -3 54 C-3.99 54 -4.98 54 -6 54 C-6 53.34 -6 52.68 -6 52 C-7.32 51.67 -8.64 51.34 -10 51 C-10 50.34 -10 49.68 -10 49 C-10.66 49 -11.32 49 -12 49 C-11.67 47.68 -11.34 46.36 -11 45 C-11.99 45 -12.98 45 -14 45 C-14 44.01 -14 43.02 -14 42 C-13.01 42 -12.02 42 -11 42 C-11 35.73 -11 29.46 -11 23 C-10.34 23 -9.68 23 -9 23 C-9 23.99 -9 24.98 -9 26 C-8.01 26 -7.02 26 -6 26 C-6 26.66 -6 27.32 -6 28 C-6.99 28 -7.98 28 -9 28 C-9 29.98 -9 31.96 -9 34 C-6.69 34 -4.38 34 -2 34 C-2 33.34 -2 32.68 -2 32 C-1.34 32 -0.68 32 0 32 C0 32.66 0 33.32 0 34 C1.98 34 3.96 34 6 34 C6 33.01 6 32.02 6 31 C4.02 31 2.04 31 0 31 C0 30.01 0 29.02 0 28 C-0.99 28 -1.98 28 -3 28 C-3 27.34 -3 26.68 -3 26 C-3.66 26 -4.32 26 -5 26 C-5.33 25.01 -5.66 24.02 -6 23 C-6.66 22.67 -7.32 22.34 -8 22 C-8 21.34 -8 20.68 -8 20 C-7.01 20 -6.02 20 -5 20 C-5 18.02 -5 16.04 -5 14 C-4.34 14 -3.68 14 -3 14 C-3 10.37 -3 6.74 -3 3 C-2.01 3 -1.02 3 0 3 C0 2.01 0 1.02 0 0 Z " fill="#DEDEDF" transform="translate(780,1009)"/>
<path d="M0 0 C1.98 0 3.96 0 6 0 C6 0.99 6 1.98 6 3 C6.66 3 7.32 3 8 3 C8 2.01 8 1.02 8 0 C9.98 0 11.96 0 14 0 C14 0.99 14 1.98 14 3 C14.99 3 15.98 3 17 3 C17 6.63 17 10.26 17 14 C17.99 14.33 18.98 14.66 20 15 C20 18.63 20 22.26 20 26 C19.01 26 18.02 26 17 26 C17 26.99 17 27.98 17 29 C16.34 29 15.68 29 15 29 C15.33 29.763125 15.66 30.52625 16 31.3125 C17 34 17 34 17 37 C7.76 37 -1.48 37 -11 37 C-11 32.38 -11 27.76 -11 23 C-10.01 23 -9.02 23 -8 23 C-8 22.01 -8 21.02 -8 20 C-7.01 20 -6.02 20 -5 20 C-5 18.02 -5 16.04 -5 14 C-4.34 14 -3.68 14 -3 14 C-3 10.37 -3 6.74 -3 3 C-2.01 3 -1.02 3 0 3 C0 2.01 0 1.02 0 0 Z " fill="#59646E" transform="translate(387,1042)"/>
<path d="M0 0 C4.62 0 9.24 0 14 0 C14 0.99 14 1.98 14 3 C14.66 3 15.32 3 16 3 C16 3.99 16 4.98 16 6 C16.99 6 17.98 6 19 6 C19 6.99 19 7.98 19 9 C20.32 9 21.64 9 23 9 C23 13.62 23 18.24 23 23 C22.01 23 21.02 23 20 23 C20 23.99 20 24.98 20 26 C19.01 26 18.02 26 17 26 C17 26.66 17 27.32 17 28 C16.01 28 15.02 28 14 28 C14 28.99 14 29.98 14 31 C9.38 31 4.76 31 0 31 C0 30.01 0 29.02 0 28 C-0.66 28 -1.32 28 -2 28 C-2 27.01 -2 26.02 -2 25 C-2.99 25 -3.98 25 -5 25 C-5 24.01 -5 23.02 -5 22 C-5.99 22 -6.98 22 -8 22 C-8 17.71 -8 13.42 -8 9 C-7.01 9 -6.02 9 -5 9 C-5 8.01 -5 7.02 -5 6 C-4.34 6 -3.68 6 -3 6 C-3 5.01 -3 4.02 -3 3 C-2.01 3 -1.02 3 0 3 C0 2.01 0 1.02 0 0 Z " fill="#806047" transform="translate(1487,1024)"/>
<path d="M0 0 C0.66 0 1.32 0 2 0 C2 0.99 2 1.98 2 3 C2.99 3 3.98 3 5 3 C5 3.66 5 4.32 5 5 C4.01 5 3.02 5 2 5 C2 6.98 2 8.96 2 11 C4.31 11 6.62 11 9 11 C9 10.34 9 9.68 9 9 C9.66 9 10.32 9 11 9 C11 9.66 11 10.32 11 11 C12.98 11 14.96 11 17 11 C17 10.01 17 9.02 17 8 C15.35 8 13.7 8 12 8 C12 7.34 12 6.68 12 6 C16.29 6 20.58 6 25 6 C25 10.29 25 14.58 25 19 C25.99 19 26.98 19 28 19 C28 19.99 28 20.98 28 22 C27.01 22 26.02 22 25 22 C25 22.99 25 23.98 25 25 C24.01 25 23.02 25 22 25 C22 25.99 22 26.98 22 28 C21.34 28 20.68 28 20 28 C19.67 28.99 19.34 29.98 19 31 C18.34 31 17.68 31 17 31 C17 31.66 17 32.32 17 33 C16.01 33 15.02 33 14 33 C14 33.99 14 34.98 14 36 C13.01 36 12.02 36 11 36 C11 35.34 11 34.68 11 34 C10.01 34 9.02 34 8 34 C8 33.01 8 32.02 8 31 C7.01 31 6.02 31 5 31 C5 30.34 5 29.68 5 29 C3.68 28.67 2.36 28.34 1 28 C1 27.34 1 26.68 1 26 C0.34 26 -0.32 26 -1 26 C-0.67 24.68 -0.34 23.36 0 22 C-0.99 22 -1.98 22 -3 22 C-3 21.01 -3 20.02 -3 19 C-2.01 19 -1.02 19 0 19 C0 12.73 0 6.46 0 0 Z " fill="#56636C" transform="translate(769,1032)"/>
<path d="M0 0 C2.31 0 4.62 0 7 0 C7 0.66 7 1.32 7 2 C7.66 2 8.32 2 9 2 C9 3.98 9 5.96 9 8 C10.98 8 12.96 8 15 8 C15 6.02 15 4.04 15 2 C15.66 2 16.32 2 17 2 C17 1.34 17 0.68 17 0 C19.31 0 21.62 0 24 0 C24 0.66 24 1.32 24 2 C24.66 2 25.32 2 26 2 C26 6.95 26 11.9 26 17 C25.01 17 24.02 17 23 17 C23 17.99 23 18.98 23 20 C22.34 20 21.68 20 21 20 C21 20.99 21 21.98 21 23 C15.06 23 9.12 23 3 23 C3 22.01 3 21.02 3 20 C2.01 19.67 1.02 19.34 0 19 C0 18.34 0 17.68 0 17 C-0.99 17 -1.98 17 -3 17 C-3.91457003 11.43842552 -4.32086397 7.324335 -2 2 C-1.34 2 -0.68 2 0 2 C0 1.34 0 0.68 0 0 Z " fill="#303F57" transform="translate(417,1037)"/>
<path d="M0 0 C2.05078125 0.03255208 4.1015625 0.06510417 6.15234375 0.09765625 C6.15234375 1.08765625 6.15234375 2.07765625 6.15234375 3.09765625 C6.81234375 3.09765625 7.47234375 3.09765625 8.15234375 3.09765625 C8.15234375 2.43765625 8.15234375 1.77765625 8.15234375 1.09765625 C10.13234375 1.09765625 12.11234375 1.09765625 14.15234375 1.09765625 C14.15234375 1.75765625 14.15234375 2.41765625 14.15234375 3.09765625 C12.83234375 3.42765625 11.51234375 3.75765625 10.15234375 4.09765625 C9.82234375 7.39765625 9.49234375 10.69765625 9.15234375 14.09765625 C8.16234375 14.09765625 7.17234375 14.09765625 6.15234375 14.09765625 C6.15234375 10.79765625 6.15234375 7.49765625 6.15234375 4.09765625 C4.50234375 4.09765625 2.85234375 4.09765625 1.15234375 4.09765625 C1.15234375 4.75765625 1.15234375 5.41765625 1.15234375 6.09765625 C1.81234375 6.09765625 2.47234375 6.09765625 3.15234375 6.09765625 C3.15234375 9.06765625 3.15234375 12.03765625 3.15234375 15.09765625 C1.50234375 15.09765625 -0.14765625 15.09765625 -1.84765625 15.09765625 C-1.84765625 17.73765625 -1.84765625 20.37765625 -1.84765625 23.09765625 C-1.18765625 23.09765625 -0.52765625 23.09765625 0.15234375 23.09765625 C0.15234375 21.11765625 0.15234375 19.13765625 0.15234375 17.09765625 C1.14234375 17.09765625 2.13234375 17.09765625 3.15234375 17.09765625 C3.15234375 19.07765625 3.15234375 21.05765625 3.15234375 23.09765625 C4.14234375 23.09765625 5.13234375 23.09765625 6.15234375 23.09765625 C5.82234375 24.41765625 5.49234375 25.73765625 5.15234375 27.09765625 C8.12234375 27.42765625 11.09234375 27.75765625 14.15234375 28.09765625 C14.15234375 27.10765625 14.15234375 26.11765625 14.15234375 25.09765625 C15.14234375 25.09765625 16.13234375 25.09765625 17.15234375 25.09765625 C17.15234375 21.79765625 17.15234375 18.49765625 17.15234375 15.09765625 C18.14234375 15.09765625 19.13234375 15.09765625 20.15234375 15.09765625 C20.15234375 16.74765625 20.15234375 18.39765625 20.15234375 20.09765625 C21.14234375 20.09765625 22.13234375 20.09765625 23.15234375 20.09765625 C23.15234375 20.75765625 23.15234375 21.41765625 23.15234375 22.09765625 C23.81234375 22.09765625 24.47234375 22.09765625 25.15234375 22.09765625 C25.15234375 27.04765625 25.15234375 31.99765625 25.15234375 37.09765625 C21.02730077 37.12451977 16.90243106 37.14442879 12.77734375 37.16015625 C11.01390625 37.17272461 11.01390625 37.17272461 9.21484375 37.18554688 C8.09335938 37.18876953 6.971875 37.19199219 5.81640625 37.1953125 C4.26107178 37.20316772 4.26107178 37.20316772 2.67431641 37.21118164 C0.15234375 37.09765625 0.15234375 37.09765625 -1.84765625 36.09765625 C-1.84765625 35.43765625 -1.84765625 34.77765625 -1.84765625 34.09765625 C-1.18765625 34.09765625 -0.52765625 34.09765625 0.15234375 34.09765625 C0.15234375 32.11765625 0.15234375 30.13765625 0.15234375 28.09765625 C-0.83765625 28.09765625 -1.82765625 28.09765625 -2.84765625 28.09765625 C-2.84765625 27.43765625 -2.84765625 26.77765625 -2.84765625 26.09765625 C-3.50765625 26.09765625 -4.16765625 26.09765625 -4.84765625 26.09765625 C-4.84765625 22.13765625 -4.84765625 18.17765625 -4.84765625 14.09765625 C-4.18765625 14.09765625 -3.52765625 14.09765625 -2.84765625 14.09765625 C-2.85925781 13.17082031 -2.87085938 12.24398438 -2.8828125 11.2890625 C-2.89183594 10.09152344 -2.90085937 8.89398437 -2.91015625 7.66015625 C-2.92175781 6.46519531 -2.93335938 5.27023437 -2.9453125 4.0390625 C-2.81615523 0.14884541 -2.81615523 0.14884541 0 0 Z " fill="#C1C4C7" transform="translate(1551.84765625,1041.90234375)"/>
<path d="M0 0 C2.31 0 4.62 0 7 0 C7 0.99 7 1.98 7 3 C7.66 3 8.32 3 9 3 C9 2.01 9 1.02 9 0 C10.98 0 12.96 0 15 0 C15 0.99 15 1.98 15 3 C15.99 3 16.98 3 18 3 C18 6.63 18 10.26 18 14 C18.66 14 19.32 14 20 14 C20 17.96 20 21.92 20 26 C19.34 26 18.68 26 18 26 C18 26.99 18 27.98 18 29 C17.01 29 16.02 29 15 29 C15 30.65 15 32.3 15 34 C15.66 34 16.32 34 17 34 C16.67 34.99 16.34 35.98 16 37 C6.43 37 -3.14 37 -13 37 C-13 36.01 -13 35.02 -13 34 C-12.34 34 -11.68 34 -11 34 C-11 30.37 -11 26.74 -11 23 C-10.01 23 -9.02 23 -8 23 C-8 23.99 -8 24.98 -8 26 C-7.01 26 -6.02 26 -5 26 C-5 26.66 -5 27.32 -5 28 C-5.99 28 -6.98 28 -8 28 C-8 29.98 -8 31.96 -8 34 C-6.02 34 -4.04 34 -2 34 C-2 33.01 -2 32.02 -2 31 C-1.34 31 -0.68 31 0 31 C0 30.01 0 29.02 0 28 C-0.66 28 -1.32 28 -2 28 C-2 27.34 -2 26.68 -2 26 C-1.01 26 -0.02 26 1 26 C1 26.66 1 27.32 1 28 C4.3 28 7.6 28 11 28 C11 27.34 11 26.68 11 26 C10.34 26 9.68 26 9 26 C9 25.01 9 24.02 9 23 C9.66 23 10.32 23 11 23 C11 21.02 11 19.04 11 17 C12.32 17 13.64 17 15 17 C15 19.31 15 21.62 15 24 C15.66 24.33 16.32 24.66 17 25 C17 21.7 17 18.4 17 15 C16.01 14.67 15.02 14.34 14 14 C14 10.7 14 7.4 14 4 C12.35 4 10.7 4 9 4 C9 7.3 9 10.6 9 14 C8.01 14 7.02 14 6 14 C6 10.7 6 7.4 6 4 C4.35 4 2.7 4 1 4 C1 7.63 1 11.26 1 15 C0.01 15 -0.98 15 -2 15 C-2 18.3 -2 21.6 -2 25 C-2.99 25 -3.98 25 -5 25 C-5 24.01 -5 23.02 -5 22 C-5.66 22 -6.32 22 -7 22 C-7 21.34 -7 20.68 -7 20 C-6.34 20 -5.68 20 -5 20 C-5 18.02 -5 16.04 -5 14 C-4.01 14 -3.02 14 -2 14 C-2 10.37 -2 6.74 -2 3 C-1.34 3 -0.68 3 0 3 C0 2.01 0 1.02 0 0 Z " fill="#798388" transform="translate(1450,1042)"/>
<path d="M0 0 C5.94 0 11.88 0 18 0 C17.34 0.66 16.68 1.32 16 2 C16.99580078 2.75216797 16.99580078 2.75216797 18.01171875 3.51953125 C20.32400418 6.40420953 20.33877804 8.01289989 20.04492188 11.63476562 C19.92987305 12.65086914 19.92987305 12.65086914 19.8125 13.6875 C19.75513672 14.37650391 19.69777344 15.06550781 19.63867188 15.77539062 C19.17710024 20.82289976 19.17710024 20.82289976 18 22 C15.46950598 22.07313567 12.96695163 22.09247527 10.4375 22.0625 C9.72658203 22.05798828 9.01566406 22.05347656 8.28320312 22.04882812 C6.52209987 22.03700864 4.76103964 22.01907263 3 22 C2.67 19.36 2.34 16.72 2 14 C0.02 14.99 0.02 14.99 -2 16 C-2 15.01 -2 14.02 -2 13 C-1.34 13 -0.68 13 0 13 C0 12.34 0 11.68 0 11 C1.5 9.375 1.5 9.375 3 8 C1.68 8.33 0.36 8.66 -1 9 C-0.67 7.35 -0.34 5.7 0 4 C0.99 3.67 1.98 3.34 3 3 C2.01 2.67 1.02 2.34 0 2 C0 1.34 0 0.68 0 0 Z " fill="#B7DEF4" transform="translate(110,1043)"/>
<path d="M0 0 C1.98 0 3.96 0 6 0 C6 3.3 6 6.6 6 10 C6.66 10 7.32 10 8 10 C8 6.7 8 3.4 8 0 C9.98 0 11.96 0 14 0 C14 3.63 14 7.26 14 11 C14.66 11 15.32 11 16 11 C16 14.3 16 17.6 16 21 C15.34 21 14.68 21 14 21 C14 21.99 14 22.98 14 24 C9.38 24 4.76 24 0 24 C0 23.01 0 22.02 0 21 C-0.66 21 -1.32 21 -2 21 C-2 17.7 -2 14.4 -2 11 C-1.34 11 -0.68 11 0 11 C0 7.37 0 3.74 0 0 Z " fill="#E7E5EC" transform="translate(387,1046)"/>
<path d="M0 0 C1.98 0 3.96 0 6 0 C6 3.3 6 6.6 6 10 C6.99 10 7.98 10 9 10 C9 6.7 9 3.4 9 0 C10.65 0 12.3 0 14 0 C14 3.63 14 7.26 14 11 C14.99 11 15.98 11 17 11 C17 14.3 17 17.6 17 21 C16.01 21 15.02 21 14 21 C14 21.99 14 22.98 14 24 C7.9453125 24.1953125 7.9453125 24.1953125 6 24 C5.34 23.34 4.68 22.68 4 22 C4.66 22 5.32 22 6 22 C6 21.01 6 20.02 6 19 C5.01 19 4.02 19 3 19 C3 17.02 3 15.04 3 13 C2.01 13 1.02 13 0 13 C0 14.98 0 16.96 0 19 C0.66 19 1.32 19 2 19 C2 19.99 2 20.98 2 22 C0.68 22 -0.64 22 -2 22 C-2 18.37 -2 14.74 -2 11 C-1.34 11 -0.68 11 0 11 C0 7.37 0 3.74 0 0 Z " fill="#F2F3F3" transform="translate(958,1046)"/>
<path d="M0 0 C0.66 0 1.32 0 2 0 C2 0.66 2 1.32 2 2 C5.96 2 9.92 2 14 2 C14 2.99 14 3.98 14 5 C12.02 5 10.04 5 8 5 C8 6.98 8 8.96 8 11 C9.65 11 11.3 11 13 11 C13 11.66 13 12.32 13 13 C11.35 13 9.7 13 8 13 C8 14.98 8 16.96 8 19 C9.98 19 11.96 19 14 19 C13.67 19.99 13.34 20.98 13 22 C7.06 22 1.12 22 -5 22 C-5 19.69 -5 17.38 -5 15 C-5.99 14.67 -6.98 14.34 -8 14 C-7.67 13.01 -7.34 12.02 -7 11 C-6.34 11 -5.68 11 -5 11 C-4.34 9.35 -3.68 7.7 -3 6 C-4.32 5.67 -5.64 5.34 -7 5 C-6.67 4.01 -6.34 3.02 -6 2 C-4.02 2 -2.04 2 0 2 C0 1.34 0 0.68 0 0 Z " fill="#B5DEF5" transform="translate(91,1043)"/>
<path d="M0 0 C1.65 0 3.3 0 5 0 C5 3.3 5 6.6 5 10 C5.99 10 6.98 10 8 10 C8 6.7 8 3.4 8 0 C9.65 0 11.3 0 13 0 C13.04898437 0.71027344 13.09796875 1.42054687 13.1484375 2.15234375 C13.22320313 3.07144531 13.29796875 3.99054688 13.375 4.9375 C13.44460938 5.85402344 13.51421875 6.77054688 13.5859375 7.71484375 C13.72257812 8.46894531 13.85921875 9.22304687 14 10 C14.66 10.33 15.32 10.66 16 11 C16 14.3 16 17.6 16 21 C15.01 20.67 14.02 20.34 13 20 C13.33 17.69 13.66 15.38 14 13 C12.68 13 11.36 13 10 13 C10 14.98 10 16.96 10 19 C9.34 19 8.68 19 8 19 C8 19.99 8 20.98 8 22 C8.66 22 9.32 22 10 22 C10 22.66 10 23.32 10 24 C6.7 24 3.4 24 0 24 C0 23.01 0 22.02 0 21 C-0.99 21 -1.98 21 -3 21 C-3 17.7 -3 14.4 -3 11 C-2.01 11 -1.02 11 0 11 C0 7.37 0 3.74 0 0 Z " fill="#F7F7FA" transform="translate(1451,1046)"/>
<path d="M0 0 C1.65 0 3.3 0 5 0 C5 3.3 5 6.6 5 10 C5.99 10 6.98 10 8 10 C8 6.7 8 3.4 8 0 C9.65 0 11.3 0 13 0 C13 3.63 13 7.26 13 11 C13.66 11 14.32 11 15 11 C15 14.3 15 17.6 15 21 C14.34 21 13.68 21 13 21 C13 21.99 13 22.98 13 24 C10.03 24 7.06 24 4 24 C3.67 23.34 3.34 22.68 3 22 C3.66 22 4.32 22 5 22 C5 21.01 5 20.02 5 19 C4.01 19 3.02 19 2 19 C2 17.02 2 15.04 2 13 C1.01 13 0.02 13 -1 13 C-1 14.98 -1 16.96 -1 19 C-1.66 19 -2.32 19 -3 19 C-3 16.36 -3 13.72 -3 11 C-1.35 11 0.3 11 2 11 C2 8.03 2 5.06 2 2 C1.34 2 0.68 2 0 2 C0 1.34 0 0.68 0 0 Z " fill="#EDECF0" transform="translate(1553,1046)"/>
<path d="M0 0 C4.62 0 9.24 0 14 0 C14 0.99 14 1.98 14 3 C14.66 3 15.32 3 16 3 C16 3.99 16 4.98 16 6 C16.99 6 17.98 6 19 6 C19 6.99 19 7.98 19 9 C19.99 9 20.98 9 22 9 C22 13.29 22 17.58 22 22 C20.35 22.33 18.7 22.66 17 23 C17 22.01 17 21.02 17 20 C17.99 20 18.98 20 20 20 C20 17.03 20 14.06 20 11 C19.01 11 18.02 11 17 11 C17 10.01 17 9.02 17 8 C16.01 8 15.02 8 14 8 C14 7.34 14 6.68 14 6 C13.01 6 12.02 6 11 6 C11 5.01 11 4.02 11 3 C8.36 3 5.72 3 3 3 C3 3.99 3 4.98 3 6 C2.01 6 1.02 6 0 6 C0.66 7.65 1.32 9.3 2 11 C1.34 11 0.68 11 0 11 C0 10.34 0 9.68 0 9 C-0.99 9 -1.98 9 -3 9 C-3 9.66 -3 10.32 -3 11 C-3.99 11 -4.98 11 -6 11 C-6 13.97 -6 16.94 -6 20 C-5.01 20 -4.02 20 -3 20 C-3 20.99 -3 21.98 -3 23 C-2.34 23 -1.68 23 -1 23 C-1 23.99 -1 24.98 -1 26 C-0.01 26 0.98 26 2 26 C2 26.66 2 27.32 2 28 C4.97 28 7.94 28 11 28 C11 27.34 11 26.68 11 26 C12.32 26 13.64 26 15 26 C15 25.34 15 24.68 15 24 C15.66 24.33 16.32 24.66 17 25 C16.67 25.99 16.34 26.98 16 28 C15.34 28 14.68 28 14 28 C14 28.99 14 29.98 14 31 C9.38 31 4.76 31 0 31 C0 30.01 0 29.02 0 28 C-0.66 28 -1.32 28 -2 28 C-2 27.01 -2 26.02 -2 25 C-2.99 25 -3.98 25 -5 25 C-5 24.01 -5 23.02 -5 22 C-5.99 22 -6.98 22 -8 22 C-8 17.71 -8 13.42 -8 9 C-7.01 9 -6.02 9 -5 9 C-5 8.01 -5 7.02 -5 6 C-4.34 6 -3.68 6 -3 6 C-3 5.01 -3 4.02 -3 3 C-2.01 3 -1.02 3 0 3 C0 2.01 0 1.02 0 0 Z " fill="#050609" transform="translate(1487,1024)"/>
<path d="M0 0 C2.31 0 4.62 0 7 0 C7 0.99 7 1.98 7 3 C7.66 3 8.32 3 9 3 C9 2.01 9 1.02 9 0 C10.98 0 12.96 0 15 0 C15 0.99 15 1.98 15 3 C15.99 3 16.98 3 18 3 C18 6.63 18 10.26 18 14 C18.66 14 19.32 14 20 14 C20 17.96 20 21.92 20 26 C19.01 26 18.02 26 17 26 C17 22.37 17 18.74 17 15 C16.01 14.67 15.02 14.34 14 14 C14 10.7 14 7.4 14 4 C12.35 4 10.7 4 9 4 C9 7.3 9 10.6 9 14 C8.01 14 7.02 14 6 14 C6 10.7 6 7.4 6 4 C4.35 4 2.7 4 1 4 C1 7.63 1 11.26 1 15 C0.01 15 -0.98 15 -2 15 C-2 18.3 -2 21.6 -2 25 C-2.99 25 -3.98 25 -5 25 C-5 24.01 -5 23.02 -5 22 C-5.66 22 -6.32 22 -7 22 C-7 21.34 -7 20.68 -7 20 C-6.34 20 -5.68 20 -5 20 C-5 18.02 -5 16.04 -5 14 C-4.01 14 -3.02 14 -2 14 C-2 10.37 -2 6.74 -2 3 C-1.34 3 -0.68 3 0 3 C0 2.01 0 1.02 0 0 Z " fill="#3E4651" transform="translate(1450,1042)"/>
<path d="M0 0 C0.66 0 1.32 0 2 0 C2 1.65 2 3.3 2 5 C3.32 5 4.64 5 6 5 C6 5.66 6 6.32 6 7 C6.66 7 7.32 7 8 7 C8 11.95 8 16.9 8 22 C0.08 22 -7.84 22 -16 22 C-16 19.36 -16 16.72 -16 14 C-11.71 14 -7.42 14 -3 14 C-3 14.66 -3 15.32 -3 16 C-2.01 16 -1.02 16 0 16 C0 16.99 0 17.98 0 19 C1.98 19 3.96 19 6 19 C6 17.02 6 15.04 6 13 C4.68 13 3.36 13 2 13 C2 12.34 2 11.68 2 11 C1.34 11 0.68 11 0 11 C0 11.66 0 12.32 0 13 C-0.99 13 -1.98 13 -3 13 C-3 12.01 -3 11.02 -3 10 C-2.01 10 -1.02 10 0 10 C0 6.7 0 3.4 0 0 Z " fill="#333B42" transform="translate(975,1057)"/>
<path d="M0 0 C0.99 0 1.98 0 3 0 C3 1.65 3 3.3 3 5 C3.99 5 4.98 5 6 5 C6 5.66 6 6.32 6 7 C6.66 7 7.32 7 8 7 C8 11.95 8 16.9 8 22 C0.41 22 -7.18 22 -15 22 C-15.33 21.01 -15.66 20.02 -16 19 C-14.35 19 -12.7 19 -11 19 C-11 17.68 -11 16.36 -11 15 C-12.32 14.67 -13.64 14.34 -15 14 C-11.04 14 -7.08 14 -3 14 C-3 14.66 -3 15.32 -3 16 C-2.01 16 -1.02 16 0 16 C0 16.99 0 17.98 0 19 C1.65 19 3.3 19 5 19 C5 17.02 5 15.04 5 13 C4.01 13 3.02 13 2 13 C2 12.34 2 11.68 2 11 C1.34 11 0.68 11 0 11 C0 11.66 0 12.32 0 13 C-0.99 13 -1.98 13 -3 13 C-3 12.01 -3 11.02 -3 10 C-2.01 10 -1.02 10 0 10 C0 6.7 0 3.4 0 0 Z " fill="#2C3842" transform="translate(1569,1057)"/>
<path d="M0 0 C1.65 0 3.3 0 5 0 C5 0.66 5 1.32 5 2 C5.99 2 6.98 2 8 2 C8 1.34 8 0.68 8 0 C9.65 0 11.3 0 13 0 C13 0.66 13 1.32 13 2 C13.99 2 14.98 2 16 2 C16 3.98 16 5.96 16 8 C15.01 8 14.02 8 13 8 C13 8.99 13 9.98 13 11 C12.01 11 11.02 11 10 11 C10 11.66 10 12.32 10 13 C9.01 13 8.02 13 7 13 C7 13.99 7 14.98 7 16 C6.34 16 5.68 16 5 16 C5 15.34 5 14.68 5 14 C4.01 14 3.02 14 2 14 C2 13.01 2 12.02 2 11 C1.01 11 0.02 11 -1 11 C-1 10.01 -1 9.02 -1 8 C-1.66 8 -2.32 8 -3 8 C-3 6.35 -3 4.7 -3 3 C-2.01 3 -1.02 3 0 3 C0 2.01 0 1.02 0 0 Z " fill="#B73443" transform="translate(959,1019)"/>
<path d="M0 0 C1.65 0 3.3 0 5 0 C5 1.98 5 3.96 5 6 C5.99 6 6.98 6 8 6 C8 6.66 8 7.32 8 8 C9.98 8 11.96 8 14 8 C14 7.01 14 6.02 14 5 C14.99 5 15.98 5 17 5 C17 3.35 17 1.7 17 0 C18.65 0 20.3 0 22 0 C22 0.66 22 1.32 22 2 C21.01 2 20.02 2 19 2 C19 4.64 19 7.28 19 10 C18.01 10.33 17.02 10.66 16 11 C16 11.99 16 12.98 16 14 C12.37 14 8.74 14 5 14 C5 14.99 5 15.98 5 17 C4.34 17 3.68 17 3 17 C3 16.01 3 15.02 3 14 C2.01 14 1.02 14 0 14 C0 9.38 0 4.76 0 0 Z " fill="#AAD7EE" transform="translate(418,1040)"/>
<path d="M0 0 C1.98 0 3.96 0 6 0 C6 0.99 6 1.98 6 3 C6.66 3 7.32 3 8 3 C8 2.01 8 1.02 8 0 C9.98 0 11.96 0 14 0 C14 0.99 14 1.98 14 3 C14.99 3 15.98 3 17 3 C17 6.63 17 10.26 17 14 C16.01 14 15.02 14 14 14 C14 10.7 14 7.4 14 4 C12.02 4 10.04 4 8 4 C8 7.3 8 10.6 8 14 C7.34 14 6.68 14 6 14 C6 10.7 6 7.4 6 4 C4.02 4 2.04 4 0 4 C0 7.63 0 11.26 0 15 C-0.66 15 -1.32 15 -2 15 C-2 18.3 -2 21.6 -2 25 C-2.99 25 -3.98 25 -5 25 C-5 24.34 -5 23.68 -5 23 C-5.99 23 -6.98 23 -8 23 C-8 22.01 -8 21.02 -8 20 C-7.01 20 -6.02 20 -5 20 C-5 18.02 -5 16.04 -5 14 C-4.34 14 -3.68 14 -3 14 C-3 10.37 -3 6.74 -3 3 C-2.01 3 -1.02 3 0 3 C0 2.01 0 1.02 0 0 Z " fill="#242A38" transform="translate(387,1042)"/>
<path d="M0 0 C6.93 0 13.86 0 21 0 C21 0.99 21 1.98 21 3 C18.03 3 15.06 3 12 3 C12 4.98 12 6.96 12 9 C14.64 9 17.28 9 20 9 C20 9.66 20 10.32 20 11 C17.36 11 14.72 11 12 11 C12 13.64 12 16.28 12 19 C14.97 19 17.94 19 21 19 C21 19.66 21 20.32 21 21 C13.74 21 6.48 21 -1 21 C-1 20.34 -1 19.68 -1 19 C-0.01 18.67 0.98 18.34 2 18 C2.33 13.71 2.66 9.42 3 5 C3.66 5.33 4.32 5.66 5 6 C5 10.29 5 14.58 5 19 C6.65 19 8.3 19 10 19 C10 13.39 10 7.78 10 2 C7.36 2.33 4.72 2.66 2 3 C1.34 2.67 0.68 2.34 0 2 C0 1.34 0 0.68 0 0 Z " fill="#B8E0F7" transform="translate(59,1043)"/>
<path d="M0 0 C1.65 0 3.3 0 5 0 C5 3.63 5 7.26 5 11 C5.99 11 6.98 11 8 11 C8 14.96 8 18.92 8 23 C7.01 23 6.02 23 5 23 C5 23.66 5 24.32 5 25 C3.35 25 1.7 25 0 25 C1.375 22.5 1.375 22.5 3 20 C3.66 20 4.32 20 5 20 C5 18.02 5 16.04 5 14 C4.01 14 3.02 14 2 14 C2 15.65 2 17.3 2 19 C0.35 19 -1.3 19 -3 19 C-3 17.02 -3 15.04 -3 13 C-4.32 12.67 -5.64 12.34 -7 12 C-7.33 8.37 -7.66 4.74 -8 1 C-6.68 1 -5.36 1 -4 1 C-4 1.66 -4 2.32 -4 3 C-4.66 3 -5.32 3 -6 3 C-6 5.64 -6 8.28 -6 11 C-4.02 11 -2.04 11 0 11 C0 7.37 0 3.74 0 0 Z " fill="#F9F9FB" transform="translate(789,1012)"/>
<path d="M0 0 C0.66 0.66 1.32 1.32 2 2 C1.67 2.99 1.34 3.98 1 5 C0.34 4.34 -0.32 3.68 -1 3 C-3.60280568 3.32041397 -3.60280568 3.32041397 -6 4 C-6.33 4.99 -6.66 5.98 -7 7 C-5.3603125 6.938125 -5.3603125 6.938125 -3.6875 6.875 C0 7 0 7 3 9 C3.39507893 13.34586828 3.45331002 15.32003497 1 19 C-0.9453125 19.29296875 -0.9453125 19.29296875 -3.125 19.1875 C-4.40375 19.125625 -5.6825 19.06375 -7 19 C-10.01759496 13.97067506 -10.46070653 10.71276096 -10 5 C-8.10062899 -0.29110495 -5.3296648 -0.33310405 0 0 Z " fill="#B9DFF7" transform="translate(13,1044)"/>
<path d="M0 0 C0.89589844 0.00322266 1.79179688 0.00644531 2.71484375 0.00976562 C4.12056641 0.02233398 4.12056641 0.02233398 5.5546875 0.03515625 C6.49957031 0.03966797 7.44445312 0.04417969 8.41796875 0.04882812 C10.75527137 0.06063268 13.09244811 0.07709866 15.4296875 0.09765625 C15.4296875 1.08765625 15.4296875 2.07765625 15.4296875 3.09765625 C14.7696875 3.09765625 14.1096875 3.09765625 13.4296875 3.09765625 C13.4296875 4.08765625 13.4296875 5.07765625 13.4296875 6.09765625 C12.4396875 6.09765625 11.4496875 6.09765625 10.4296875 6.09765625 C10.4296875 7.08765625 10.4296875 8.07765625 10.4296875 9.09765625 C9.4396875 9.09765625 8.4496875 9.09765625 7.4296875 9.09765625 C7.4296875 10.08765625 7.4296875 11.07765625 7.4296875 12.09765625 C4.64756806 11.72169416 2.8417591 11.42447166 0.6171875 9.66015625 C-0.5703125 8.09765625 -0.5703125 8.09765625 -0.5703125 6.09765625 C-1.5603125 6.09765625 -2.5503125 6.09765625 -3.5703125 6.09765625 C-3.5703125 5.10765625 -3.5703125 4.11765625 -3.5703125 3.09765625 C-4.5603125 3.09765625 -5.5503125 3.09765625 -6.5703125 3.09765625 C-6.5703125 2.43765625 -6.5703125 1.77765625 -6.5703125 1.09765625 C-4.16971433 -0.10264283 -2.67670601 -0.01694118 0 0 Z " fill="#E9EAEC" transform="translate(775.5703125,1050.90234375)"/>
<path d="M0 0 C0.66 0 1.32 0 2 0 C2 0.99 2 1.98 2 3 C2.99 3 3.98 3 5 3 C5 3.66 5 4.32 5 5 C4.01 5 3.02 5 2 5 C2 6.98 2 8.96 2 11 C4.31 11 6.62 11 9 11 C9 10.34 9 9.68 9 9 C9.66 9 10.32 9 11 9 C11 9.66 11 10.32 11 11 C12.98 11 14.96 11 17 11 C17 10.01 17 9.02 17 8 C15.35 8 13.7 8 12 8 C12 7.34 12 6.68 12 6 C16.29 6 20.58 6 25 6 C25 8.64 25 11.28 25 14 C16.75 14 8.5 14 0 14 C0 9.38 0 4.76 0 0 Z " fill="#415360" transform="translate(769,1032)"/>
<path d="M0 0 C1.32 0 2.64 0 4 0 C4 3.3 4 6.6 4 10 C4.99 10 5.98 10 7 10 C7.86112267 24.86871803 7.86112267 24.86871803 4.5625 29.4375 C3.716875 30.283125 2.87125 31.12875 2 32 C1.67 32 1.34 32 1 32 C0.67 30.35 0.34 28.7 0 27 C-4.29 26.67 -8.58 26.34 -13 26 C-13.33 26.66 -13.66 27.32 -14 28 C-14 27.01 -14 26.02 -14 25 C-9.38 25 -4.76 25 0 25 C0 24.34 0 23.68 0 23 C0.99 23 1.98 23 3 23 C3 19.04 3 15.08 3 11 C2.01 11 1.02 11 0 11 C0 7.37 0 3.74 0 0 Z " fill="#B0C8D8" transform="translate(794,1012)"/>
<path d="M0 0 C0.66 0 1.32 0 2 0 C2.33 3.3 2.66 6.6 3 10 C4.32 10.33 5.64 10.66 7 11 C7 10.01 7 9.02 7 8 C6.34 8 5.68 8 5 8 C5 6.02 5 4.04 5 2 C5.99 2 6.98 2 8 2 C8 3.98 8 5.96 8 8 C8.99 8 9.98 8 11 8 C11 9.32 11 10.64 11 12 C14.63 12.33 18.26 12.66 22 13 C22 12.34 22 11.68 22 11 C22.66 11 23.32 11 24 11 C24 11.66 24 12.32 24 13 C25.32 13 26.64 13 28 13 C28 14.98 28 16.96 28 19 C26.02 19 24.04 19 22 19 C22 18.01 22 17.02 22 16 C21.01 16 20.02 16 19 16 C19 15.34 19 14.68 19 14 C14.71 14 10.42 14 6 14 C6 16.64 6 19.28 6 22 C5.01 21.67 4.02 21.34 3 21 C3 20.34 3 19.68 3 19 C3.66 19 4.32 19 5 19 C5 17.02 5 15.04 5 13 C4.01 13 3.02 13 2 13 C2 12.34 2 11.68 2 11 C1.34 11 0.68 11 0 11 C0 7.37 0 3.74 0 0 Z " fill="#51555C" transform="translate(953,1057)"/>
<path d="M0 0 C1.98 0 3.96 0 6 0 C6 0.99 6 1.98 6 3 C6.66 3 7.32 3 8 3 C8 2.01 8 1.02 8 0 C9.98 0 11.96 0 14 0 C14 0.99 14 1.98 14 3 C14.99 3 15.98 3 17 3 C17 6.63 17 10.26 17 14 C16.01 14 15.02 14 14 14 C14 10.7 14 7.4 14 4 C12.35 4 10.7 4 9 4 C9 7.3 9 10.6 9 14 C8.01 14 7.02 14 6 14 C6 10.7 6 7.4 6 4 C4.02 4 2.04 4 0 4 C0 7.3 0 10.6 0 14 C-0.66 14 -1.32 14 -2 14 C-2 10.37 -2 6.74 -2 3 C-1.34 3 -0.68 3 0 3 C0 2.01 0 1.02 0 0 Z " fill="#22272F" transform="translate(958,1042)"/>
<path d="M0 0 C0.66 0 1.32 0 2 0 C2 0.99 2 1.98 2 3 C2.99 3 3.98 3 5 3 C5 3.66 5 4.32 5 5 C4.01 5 3.02 5 2 5 C2 6.98 2 8.96 2 11 C3.98 11 5.96 11 8 11 C8 10.34 8 9.68 8 9 C8.66 9 9.32 9 10 9 C10 9.66 10 10.32 10 11 C11.98 11 13.96 11 16 11 C16 10.01 16 9.02 16 8 C14.35 8 12.7 8 11 8 C11 7.34 11 6.68 11 6 C15.29 6 19.58 6 24 6 C24 8.31 24 10.62 24 13 C16.08 13 8.16 13 0 13 C0 8.71 0 4.42 0 0 Z " fill="#2D2F34" transform="translate(1440,1065)"/>
<path d="M0 0 C0.66 0 1.32 0 2 0 C2 0.99 2 1.98 2 3 C2.66 3 3.32 3 4 3 C4 3.66 4 4.32 4 5 C3.34 5 2.68 5 2 5 C2 6.98 2 8.96 2 11 C3.98 11 5.96 11 8 11 C8 10.34 8 9.68 8 9 C8.66 9 9.32 9 10 9 C10 9.66 10 10.32 10 11 C11.98 11 13.96 11 16 11 C16 10.01 16 9.02 16 8 C14.35 8 12.7 8 11 8 C11 7.34 11 6.68 11 6 C15.29 6 19.58 6 24 6 C24 8.31 24 10.62 24 13 C16.08 13 8.16 13 0 13 C0 8.71 0 4.42 0 0 Z " fill="#373C45" transform="translate(377,1065)"/>
<path d="M0 0 C0.99 0 1.98 0 3 0 C3 3.96 3 7.92 3 12 C3.99 12 4.98 12 6 12 C5.67 12.99 5.34 13.98 5 15 C4.34 15 3.68 15 3 15 C3 16.32 3 17.64 3 19 C2.34 19 1.68 19 1 19 C1 17.35 1 15.7 1 14 C-1.97 14 -4.94 14 -8 14 C-7.4739075 10.21213403 -6.61896089 7.82847776 -4 5 C-3.34 5 -2.68 5 -2 5 C-1.34 3.35 -0.68 1.7 0 0 Z " fill="#B6DFF6" transform="translate(26,1044)"/>
<path d="M0 0 C1.3421975 0.03038439 2.68399006 0.09250106 4.0234375 0.18359375 C5.044375 0.21163086 5.044375 0.21163086 6.0859375 0.24023438 C10.99573561 0.4197428 10.99573561 0.4197428 13.3984375 1.62109375 C14.0234375 3.68359375 14.0234375 3.68359375 14.3984375 5.62109375 C13.4084375 5.62109375 12.4184375 5.62109375 11.3984375 5.62109375 C11.3984375 4.96109375 11.3984375 4.30109375 11.3984375 3.62109375 C9.7484375 3.62109375 8.0984375 3.62109375 6.3984375 3.62109375 C6.3984375 4.28109375 6.3984375 4.94109375 6.3984375 5.62109375 C5.4084375 5.62109375 4.4184375 5.62109375 3.3984375 5.62109375 C3.3984375 4.96109375 3.3984375 4.30109375 3.3984375 3.62109375 C1.7484375 3.62109375 0.0984375 3.62109375 -1.6015625 3.62109375 C-1.6015625 4.61109375 -1.6015625 5.60109375 -1.6015625 6.62109375 C-2.5915625 6.62109375 -3.5815625 6.62109375 -4.6015625 6.62109375 C-4.6015625 8.27109375 -4.6015625 9.92109375 -4.6015625 11.62109375 C-3.9415625 11.62109375 -3.2815625 11.62109375 -2.6015625 11.62109375 C-2.6015625 12.61109375 -2.6015625 13.60109375 -2.6015625 14.62109375 C-1.6115625 14.62109375 -0.6215625 14.62109375 0.3984375 14.62109375 C0.3984375 15.61109375 0.3984375 16.60109375 0.3984375 17.62109375 C-0.2615625 17.62109375 -0.9215625 17.62109375 -1.6015625 17.62109375 C-1.6015625 16.96109375 -1.6015625 16.30109375 -1.6015625 15.62109375 C-2.4059375 15.31171875 -3.2103125 15.00234375 -4.0390625 14.68359375 C-6.6015625 13.62109375 -6.6015625 13.62109375 -7.6015625 12.62109375 C-8.036566 8.88006365 -7.71523539 6.85534623 -6.05859375 3.44140625 C-3.6015625 0.62109375 -3.6015625 0.62109375 0 0 Z " fill="#C7CAE1" transform="translate(960.6015625,1015.37890625)"/>
<path d="M0 0 C2.05078125 0.03255208 4.1015625 0.06510417 6.15234375 0.09765625 C6.15234375 1.08765625 6.15234375 2.07765625 6.15234375 3.09765625 C6.81234375 3.09765625 7.47234375 3.09765625 8.15234375 3.09765625 C8.15234375 2.43765625 8.15234375 1.77765625 8.15234375 1.09765625 C10.13234375 1.09765625 12.11234375 1.09765625 14.15234375 1.09765625 C14.15234375 1.75765625 14.15234375 2.41765625 14.15234375 3.09765625 C12.83234375 3.42765625 11.51234375 3.75765625 10.15234375 4.09765625 C9.82234375 7.39765625 9.49234375 10.69765625 9.15234375 14.09765625 C8.16234375 14.09765625 7.17234375 14.09765625 6.15234375 14.09765625 C6.15234375 10.79765625 6.15234375 7.49765625 6.15234375 4.09765625 C4.17234375 4.09765625 2.19234375 4.09765625 0.15234375 4.09765625 C0.15234375 7.39765625 0.15234375 10.69765625 0.15234375 14.09765625 C-0.50765625 14.09765625 -1.16765625 14.09765625 -1.84765625 14.09765625 C-2.041595 11.95239526 -2.22764301 9.80641948 -2.41015625 7.66015625 C-2.56677734 5.86771484 -2.56677734 5.86771484 -2.7265625 4.0390625 C-2.76652344 3.06839844 -2.80648438 2.09773438 -2.84765625 1.09765625 C-1.84765625 0.09765625 -1.84765625 0.09765625 0 0 Z " fill="#404D5A" transform="translate(1551.84765625,1041.90234375)"/>
<path d="M0 0 C0.66 0 1.32 0 2 0 C2.25523438 1.08667969 2.25523438 1.08667969 2.515625 2.1953125 C4.28829315 9.26712692 5.68918915 14.79279277 12 19 C11.67 19.99 11.34 20.98 11 22 C6.60708214 18.68090651 4.1772135 16.20112114 2 11 C1.4225 11.721875 0.845 12.44375 0.25 13.1875 C-0.4925 14.115625 -1.235 15.04375 -2 16 C-2.680625 16.9075 -3.36125 17.815 -4.0625 18.75 C-6 21 -6 21 -9 22 C-9 21.01 -9 20.02 -9 19 C-8.236875 18.278125 -7.47375 17.55625 -6.6875 16.8125 C-2.13304263 12.04620741 -0.80819498 6.46555984 0 0 Z " fill="#B9E1F8" transform="translate(43,1043)"/>
<path d="M0 0 C0.66 0 1.32 0 2 0 C2 0.66 2 1.32 2 2 C2.99 2 3.98 2 5 2 C5 3.98 5 5.96 5 8 C3.35 8 1.7 8 0 8 C0 7.01 0 6.02 0 5 C-0.99 5 -1.98 5 -3 5 C-3 4.34 -3 3.68 -3 3 C-5.64 3.33 -8.28 3.66 -11 4 C-11 5.32 -11 6.64 -11 8 C-12.65 8 -14.3 8 -16 8 C-15.67 8.99 -15.34 9.98 -15 11 C-16.32 10.67 -17.64 10.34 -19 10 C-19 9.34 -19 8.68 -19 8 C-18.34 8 -17.68 8 -17 8 C-17 6.02 -17 4.04 -17 2 C-11.39 2 -5.78 2 0 2 C0 1.34 0 0.68 0 0 Z " fill="#566871" transform="translate(1569,1068)"/>
<path d="M0 0 C1.98 0 3.96 0 6 0 C6 0.99 6 1.98 6 3 C6.99 3 7.98 3 9 3 C9 6.63 9 10.26 9 14 C9.66 14 10.32 14 11 14 C11 17.96 11 21.92 11 26 C10.01 26 9.02 26 8 26 C8 22.37 8 18.74 8 15 C7.01 14.67 6.02 14.34 5 14 C5 9.71 5 5.42 5 1 C3.35 1 1.7 1 0 1 C0 0.67 0 0.34 0 0 Z " fill="#566071" transform="translate(1459,1042)"/>
<path d="M0 0 C1.98 0 3.96 0 6 0 C6 0.33 6 0.66 6 1 C4.35 1 2.7 1 1 1 C1 1.66 1 2.32 1 3 C2.32 3.33 3.64 3.66 5 4 C3.35 4 1.7 4 0 4 C0 7.63 0 11.26 0 15 C-0.66 15 -1.32 15 -2 15 C-2 18.3 -2 21.6 -2 25 C-2.99 25 -3.98 25 -5 25 C-5 24.34 -5 23.68 -5 23 C-5.99 23 -6.98 23 -8 23 C-8 22.01 -8 21.02 -8 20 C-7.01 20 -6.02 20 -5 20 C-5 18.02 -5 16.04 -5 14 C-4.34 14 -3.68 14 -3 14 C-3 10.37 -3 6.74 -3 3 C-2.01 3 -1.02 3 0 3 C0 2.01 0 1.02 0 0 Z " fill="#555C69" transform="translate(387,1042)"/>
<path d="M0 0 C2.31 0 4.62 0 7 0 C7.33 0.66 7.66 1.32 8 2 C9.32 1.67 10.64 1.34 12 1 C12.16682272 5.92127034 12.24828052 9.50343896 10 14 C10.66 14.33 11.32 14.66 12 15 C11.01 15 10.02 15 9 15 C9 18.3 9 21.6 9 25 C8.67 25 8.34 25 8 25 C8 21.7 8 18.4 8 15 C7.34 15 6.68 15 6 15 C6 11.37 6 7.74 6 4 C4.68 3.67 3.36 3.34 2 3 C3.32 3 4.64 3 6 3 C6 2.34 6 1.68 6 1 C4.02 1 2.04 1 0 1 C0 0.67 0 0.34 0 0 Z " fill="#A3BBCA" transform="translate(1560,1042)"/>
<path d="M0 0 C0.33 0.66 0.66 1.32 1 2 C1.66 2.33 2.32 2.66 3 3 C3 4.32 3 5.64 3 7 C0.54270666 9.38708496 -1.55141575 10.82668336 -4.75 12.0625 C-5.4925 12.371875 -6.235 12.68125 -7 13 C-7.33 13.99 -7.66 14.98 -8 16 C-11.0625 17.6875 -11.0625 17.6875 -14 19 C-14 17.35 -14 15.7 -14 14 C-13.01 14 -12.02 14 -11 14 C-11 13.34 -11 12.68 -11 12 C-9.625 10.375 -9.625 10.375 -8 9 C-7.34 9 -6.68 9 -6 9 C-6 8.01 -6 7.02 -6 6 C-5.01 6 -4.02 6 -3 6 C-3 5.01 -3 4.02 -3 3 C-2.01 3 -1.02 3 0 3 C0 2.01 0 1.02 0 0 Z " fill="#A9C9D9" transform="translate(797,1051)"/>
<path d="M0 0 C1.65 0 3.3 0 5 0 C5 0.66 5 1.32 5 2 C5.99 2 6.98 2 8 2 C8 3.98 8 5.96 8 8 C7.01 8 6.02 8 5 8 C5 8.99 5 9.98 5 11 C4.01 11 3.02 11 2 11 C2 11.66 2 12.32 2 13 C1.01 13 0.02 13 -1 13 C-1 13.99 -1 14.98 -1 16 C-1.66 16 -2.32 16 -3 16 C-3 15.34 -3 14.68 -3 14 C-3.99 14 -4.98 14 -6 14 C-6 13.34 -6 12.68 -6 12 C-3.69 12 -1.38 12 1 12 C0.67 10.02 0.34 8.04 0 6 C-0.66 6 -1.32 6 -2 6 C-2.33 5.01 -2.66 4.02 -3 3 C-1.68 2.67 -0.36 2.34 1 2 C0.67 1.34 0.34 0.68 0 0 Z " fill="#9E2B35" transform="translate(967,1019)"/>
<path d="M0 0 C0.99 0 1.98 0 3 0 C3 3.96 3 7.92 3 12 C2.34 12 1.68 12 1 12 C1 15.3 1 18.6 1 22 C1.66 22 2.32 22 3 22 C3 22.99 3 23.98 3 25 C2.01 25 1.02 25 0 25 C0 24.34 0 23.68 0 23 C-0.66 23 -1.32 23 -2 23 C-2.33 22.01 -2.66 21.02 -3 20 C-3.66 19.67 -4.32 19.34 -5 19 C-5 18.34 -5 17.68 -5 17 C-4.01 17 -3.02 17 -2 17 C-2 15.02 -2 13.04 -2 11 C-1.34 11 -0.68 11 0 11 C0 7.37 0 3.74 0 0 Z " fill="#4E545A" transform="translate(777,1012)"/>
<path d="M0 0 C1.98 0 3.96 0 6 0 C6 3.3 6 6.6 6 10 C6.99 10 7.98 10 9 10 C9 7.69 9 5.38 9 3 C9.66 3 10.32 3 11 3 C11 5.64 11 8.28 11 11 C9.54364629 11.22174933 8.08477044 11.42698698 6.625 11.625 C5.81289063 11.74101563 5.00078125 11.85703125 4.1640625 11.9765625 C3.44992187 11.98429687 2.73578125 11.99203125 2 12 C0 10 0 10 -0.1953125 7.6171875 C-0.17210937 6.71226563 -0.14890625 5.80734375 -0.125 4.875 C-0.10695313 3.96492188 -0.08890625 3.05484375 -0.0703125 2.1171875 C-0.04710937 1.41851563 -0.02390625 0.71984375 0 0 Z " fill="#CAC2D6" transform="translate(958,1046)"/>
<path d="M0 0 C0.66 0 1.32 0 2 0 C2 0.66 2 1.32 2 2 C2.62648438 1.97679687 3.25296875 1.95359375 3.8984375 1.9296875 C4.71570313 1.91164063 5.53296875 1.89359375 6.375 1.875 C7.18710938 1.85179687 7.99921875 1.82859375 8.8359375 1.8046875 C11 2 11 2 13 4 C12.16855469 4.01417969 11.33710937 4.02835938 10.48046875 4.04296875 C9.39378906 4.09066406 8.30710937 4.13835937 7.1875 4.1875 C6.10855469 4.22230469 5.02960938 4.25710938 3.91796875 4.29296875 C0.85909215 4.72966313 0.85909215 4.72966313 -0.84375 7.1875 C-2.07702752 10.18736423 -2.49296298 12.58318547 -2.6875 15.8125 C-2.75324219 16.78832031 -2.81898437 17.76414062 -2.88671875 18.76953125 C-2.92410156 19.50558594 -2.96148437 20.24164062 -3 21 C-3.33 21 -3.66 21 -4 21 C-4.33 18.69 -4.66 16.38 -5 14 C-5.99 14 -6.98 14 -8 14 C-7.67 13.01 -7.34 12.02 -7 11 C-6.34 11 -5.68 11 -5 11 C-4.34 9.35 -3.68 7.7 -3 6 C-4.32 5.67 -5.64 5.34 -7 5 C-6.67 4.01 -6.34 3.02 -6 2 C-4.02 2 -2.04 2 0 2 C0 1.34 0 0.68 0 0 Z " fill="#B9E1F8" transform="translate(91,1043)"/>
<path d="M0 0 C2.31 0 4.62 0 7 0 C7 0.66 7 1.32 7 2 C7.66 2 8.32 2 9 2 C9 6.95 9 11.9 9 17 C8.01 17 7.02 17 6 17 C6 12.38 6 7.76 6 3 C4.35 3 2.7 3 1 3 C1 4.65 1 6.3 1 8 C0.01 8 -0.98 8 -2 8 C-2 6.02 -2 4.04 -2 2 C-1.34 2 -0.68 2 0 2 C0 1.34 0 0.68 0 0 Z " fill="#283F51" transform="translate(434,1037)"/>
<path d="M0 0 C1.32 0.33 2.64 0.66 4 1 C4 2.65 4 4.3 4 6 C2.35 6 0.7 6 -1 6 C-1 6.99 -1 7.98 -1 9 C0.65 9 2.3 9 4 9 C4 10.98 4 12.96 4 15 C1.69 15 -0.62 15 -3 15 C-3.55353075 4.44191344 -3.55353075 4.44191344 0 0 Z " fill="#ABD5EC" transform="translate(92,1047)"/>
<path d="M0 0 C2.31 0 4.62 0 7 0 C7 0.66 7 1.32 7 2 C7.66 2 8.32 2 9 2 C9 3.98 9 5.96 9 8 C10.98 8 12.96 8 15 8 C15 8.99 15 9.98 15 11 C13.02 11 11.04 11 9 11 C9 10.34 9 9.68 9 9 C8.01 9 7.02 9 6 9 C6 7.02 6 5.04 6 3 C4.35 3 2.7 3 1 3 C1 4.65 1 6.3 1 8 C0.01 8 -0.98 8 -2 8 C-2 6.02 -2 4.04 -2 2 C-1.34 2 -0.68 2 0 2 C0 1.34 0 0.68 0 0 Z " fill="#35475C" transform="translate(417,1037)"/>
<path d="M0 0 C4.29 0 8.58 0 13 0 C13 0.66 13 1.32 13 2 C13.66 2 14.32 2 15 2 C15 2.99 15 3.98 15 5 C15.99 5 16.98 5 18 5 C18 5.99 18 6.98 18 8 C18.99 8 19.98 8 21 8 C21 12.29 21 16.58 21 21 C19.35 21.33 17.7 21.66 16 22 C16 21.01 16 20.02 16 19 C16.99 19 17.98 19 19 19 C19 16.03 19 13.06 19 10 C18.01 10 17.02 10 16 10 C16 9.01 16 8.02 16 7 C15.01 7 14.02 7 13 7 C13 6.01 13 5.02 13 4 C12.34 4 11.68 4 11 4 C11 3.01 11 2.02 11 1 C7.37 1 3.74 1 0 1 C0 0.67 0 0.34 0 0 Z " fill="#07050A" transform="translate(1488,1025)"/>
<path d="M0 0 C8.25 0 16.5 0 25 0 C25 0.99 25 1.98 25 3 C16.75 3 8.5 3 0 3 C0 2.01 0 1.02 0 0 Z " fill="#598595" transform="translate(769,1046)"/>
<path d="M0 0 C0.99 0 1.98 0 3 0 C3 0.99 3 1.98 3 3 C3.66 3 4.32 3 5 3 C5 3.99 5 4.98 5 6 C5.99 6 6.98 6 8 6 C8 6.66 8 7.32 8 8 C9.98 8 11.96 8 14 8 C14 8.99 14 9.98 14 11 C12.02 11 10.04 11 8 11 C8 10.34 8 9.68 8 9 C7.34 9 6.68 9 6 9 C6 9.66 6 10.32 6 11 C4.02 11 2.04 11 0 11 C0 9.02 0 7.04 0 5 C0.66 5 1.32 5 2 5 C2 4.34 2 3.68 2 3 C1.34 3 0.68 3 0 3 C0 2.01 0 1.02 0 0 Z " fill="#E8E9EC" transform="translate(379,1065)"/>
<path d="M0 0 C0.99 0 1.98 0 3 0 C3 3.96 3 7.92 3 12 C2.01 12 1.02 12 0 12 C0 12.66 0 13.32 0 14 C-4.62 14 -9.24 14 -14 14 C-14 13.34 -14 12.68 -14 12 C-10.37 12 -6.74 12 -3 12 C-3 11.01 -3 10.02 -3 9 C-2.34 8.67 -1.68 8.34 -1 8 C-0.53476937 6.10466658 -0.53476937 6.10466658 -0.375 3.9375 C-0.25125 2.638125 -0.1275 1.33875 0 0 Z " fill="#629FBE" transform="translate(437,1042)"/>
<path d="M0 0 C0 1.65 0 3.3 0 5 C-0.99 5.495 -0.99 5.495 -2 6 C-2.33 6.99 -2.66 7.98 -3 9 C-5.64 9.33 -8.28 9.66 -11 10 C-11 11.32 -11 12.64 -11 14 C-11.99 14 -12.98 14 -14 14 C-13.67 11.36 -13.34 8.72 -13 6 C-10.36 6 -7.72 6 -5 6 C-4.67 4.35 -4.34 2.7 -4 1 C-1 0 -1 0 0 0 Z " fill="#7D6650" transform="translate(1495,1030)"/>
<path d="M0 0 C1.98 0 3.96 0 6 0 C6 0.99 6 1.98 6 3 C6.99 3 7.98 3 9 3 C9 6.63 9 10.26 9 14 C8.01 14 7.02 14 6 14 C6 10.7 6 7.4 6 4 C4.35 4 2.7 4 1 4 C1 7.3 1 10.6 1 14 C0.67 14 0.34 14 0 14 C0 9.38 0 4.76 0 0 Z " fill="#57606E" transform="translate(966,1042)"/>
<path d="M0 0 C0.99 0 1.98 0 3 0 C3 1.65 3 3.3 3 5 C3.99 5 4.98 5 6 5 C6 5.66 6 6.32 6 7 C6.66 7.33 7.32 7.66 8 8 C7.34 8 6.68 8 6 8 C6 8.99 6 9.98 6 11 C5.01 11 4.02 11 3 11 C2.67 11.66 2.34 12.32 2 13 C2 12.34 2 11.68 2 11 C1.34 11 0.68 11 0 11 C0 11.66 0 12.32 0 13 C-0.99 13 -1.98 13 -3 13 C-3 12.01 -3 11.02 -3 10 C-2.01 10 -1.02 10 0 10 C0 6.7 0 3.4 0 0 Z " fill="#848A8B" transform="translate(1569,1057)"/>
<path d="M0 0 C6.875 0.875 6.875 0.875 8 2 C8.35897436 8.46153846 8.35897436 8.46153846 6 12 C4.125 12.3984375 4.125 12.3984375 2 12.375 C1.29875 12.38273437 0.5975 12.39046875 -0.125 12.3984375 C-2 12 -2 12 -4 9 C-4.125 5.8125 -4.125 5.8125 -4 3 C-2 6 -2 6 -2 9 C-0.02 9 1.96 9 4 9 C4.33 7.35 4.66 5.7 5 4 C3.02 3.34 1.04 2.68 -1 2 C-0.67 1.34 -0.34 0.68 0 0 Z " fill="#BAE0F8" transform="translate(8,1051)"/>
<path d="M0 0 C1.65 0 3.3 0 5 0 C5 1.98 5 3.96 5 6 C5.99 6 6.98 6 8 6 C8 6.66 8 7.32 8 8 C9.98 8 11.96 8 14 8 C14 8.33 14 8.66 14 9 C12.95199219 9.07347656 12.95199219 9.07347656 11.8828125 9.1484375 C10.97273438 9.22320313 10.06265625 9.29796875 9.125 9.375 C8.22007812 9.44460938 7.31515625 9.51421875 6.3828125 9.5859375 C3.82058097 9.79568132 3.82058097 9.79568132 2 12 C2 10.68 2 9.36 2 8 C1.34 7.67 0.68 7.34 0 7 C0 4.69 0 2.38 0 0 Z " fill="#ABCADE" transform="translate(418,1040)"/>
<path d="M0 0 C0.66 0 1.32 0 2 0 C2 0.66 2 1.32 2 2 C2.99 2 3.98 2 5 2 C5 2.99 5 3.98 5 5 C6.98 5 8.96 5 11 5 C11 5.99 11 6.98 11 8 C9.02 8 7.04 8 5 8 C5 7.34 5 6.68 5 6 C4.34 6 3.68 6 3 6 C3 6.66 3 7.32 3 8 C1.02 8 -0.96 8 -3 8 C-3 6.35 -3 4.7 -3 3 C-2.01 3 -1.02 3 0 3 C0 2.01 0 1.02 0 0 Z " fill="#F3F4F6" transform="translate(775,1035)"/>
<path d="M0 0 C0.66 0 1.32 0 2 0 C2 0.99 2 1.98 2 3 C2.66 3 3.32 3 4 3 C4 3.66 4 4.32 4 5 C3.34 5 2.68 5 2 5 C2 6.98 2 8.96 2 11 C3.98 11 5.96 11 8 11 C8 10.34 8 9.68 8 9 C8.66 9 9.32 9 10 9 C10 9.66 10 10.32 10 11 C11.98 11 13.96 11 16 11 C15.67 11.66 15.34 12.32 15 13 C10.05 13 5.1 13 0 13 C0 8.71 0 4.42 0 0 Z " fill="#00020B" transform="translate(377,1065)"/>
<path d="M0 0 C0 1.65 0 3.3 0 5 C-0.66 5 -1.32 5 -2 5 C-2 5.66 -2 6.32 -2 7 C-2.66 7 -3.32 7 -4 7 C-4 5.35 -4 3.7 -4 2 C-5.32 2 -6.64 2 -8 2 C-8 3.98 -8 5.96 -8 8 C-7.34 8 -6.68 8 -6 8 C-6 8.99 -6 9.98 -6 11 C-7.32 11 -8.64 11 -10 11 C-10 7.37 -10 3.74 -10 0 C-6.7169902 -1.6415049 -3.57454967 -0.51888624 0 0 Z " fill="#F4F4F8" transform="translate(966,1057)"/>
<path d="M0 0 C8.25 0 16.5 0 25 0 C25 0.66 25 1.32 25 2 C12.625 2.495 12.625 2.495 0 3 C0 3.66 0 4.32 0 5 C-0.99 5 -1.98 5 -3 5 C-3 4.01 -3 3.02 -3 2 C-2.01 2 -1.02 2 0 2 C0 1.34 0 0.68 0 0 Z " fill="#0C131F" transform="translate(769,1049)"/>
<path d="M0 0 C1.65 0 3.3 0 5 0 C5 3.63 5 7.26 5 11 C5.99 11 6.98 11 8 11 C8 14.96 8 18.92 8 23 C7.01 22.67 6.02 22.34 5 22 C5.66 22 6.32 22 7 22 C7 18.7 7 15.4 7 12 C5.35 12 3.7 12 2 12 C1.67 10.02 1.34 8.04 1 6 C0.67 6 0.34 6 0 6 C0 4.02 0 2.04 0 0 Z " fill="#D4CEDE" transform="translate(789,1012)"/>
<path d="M0 0 C4.62 0 9.24 0 14 0 C13.34 0.66 12.68 1.32 12 2 C12 2.99 12 3.98 12 5 C12.66 5.33 13.32 5.66 14 6 C13.01 6 12.02 6 11 6 C11 5.01 11 4.02 11 3 C8.36 3 5.72 3 3 3 C3 3.99 3 4.98 3 6 C2.01 6 1.02 6 0 6 C0.66 7.65 1.32 9.3 2 11 C1.34 11 0.68 11 0 11 C0 10.34 0 9.68 0 9 C-0.99 8.67 -1.98 8.34 -3 8 C-2.34 8 -1.68 8 -1 8 C-1 7.34 -1 6.68 -1 6 C-1.66 6 -2.32 6 -3 6 C-3 5.01 -3 4.02 -3 3 C-2.01 3 -1.02 3 0 3 C0 2.01 0 1.02 0 0 Z " fill="#292727" transform="translate(1487,1024)"/>
<path d="M0 0 C0.66 0 1.32 0 2 0 C2 1.65 2 3.3 2 5 C3.32 5 4.64 5 6 5 C6 5.66 6 6.32 6 7 C6.66 7.33 7.32 7.66 8 8 C7.34 8 6.68 8 6 8 C6 8.99 6 9.98 6 11 C5.01 11 4.02 11 3 11 C2.67 11.66 2.34 12.32 2 13 C2 12.34 2 11.68 2 11 C1.34 11 0.68 11 0 11 C0 11.66 0 12.32 0 13 C-0.99 13 -1.98 13 -3 13 C-3 12.01 -3 11.02 -3 10 C-2.01 10 -1.02 10 0 10 C0 6.7 0 3.4 0 0 Z " fill="#7E868A" transform="translate(975,1057)"/>
<path d="M0 0 C1.32 0.66 2.64 1.32 4 2 C3.01 2 2.02 2 1 2 C1 2.99 1 3.98 1 5 C0.34 5 -0.32 5 -1 5 C-1 5.99 -1 6.98 -1 8 C-2.32 8 -3.64 8 -5 8 C-5 11.63 -5 15.26 -5 19 C-5.66 19.33 -6.32 19.66 -7 20 C-8.18569851 14.42721701 -8.29233788 9.3377143 -6 4 C-3.4375 2.5625 -3.4375 2.5625 -1 2 C-0.67 1.34 -0.34 0.68 0 0 Z " fill="#B1D1E4" transform="translate(1483,1025)"/>
<path d="M0 0 C0.66 0 1.32 0 2 0 C2 0.99 2 1.98 2 3 C2.99 3 3.98 3 5 3 C5 3.66 5 4.32 5 5 C4.01 5 3.02 5 2 5 C2 6.98 2 8.96 2 11 C4.31 11 6.62 11 9 11 C9 10.34 9 9.68 9 9 C9.66 9 10.32 9 11 9 C11 9.99 11 10.98 11 12 C11.66 12.33 12.32 12.66 13 13 C8.71 13 4.42 13 0 13 C0 8.71 0 4.42 0 0 Z " fill="#0C141F" transform="translate(769,1032)"/>
<path d="M0 0 C0.99 0 1.98 0 3 0 C2.34 2.97 1.68 5.94 1 9 C-0.32 9 -1.64 9 -3 9 C-2.67 7.68 -2.34 6.36 -2 5 C-1.34 5 -0.68 5 0 5 C0 3.35 0 1.7 0 0 Z M-3 9 C-3 10.65 -3 12.3 -3 14 C-3.99 13.67 -4.98 13.34 -6 13 C-6 12.34 -6 11.68 -6 11 C-6.66 11 -7.32 11 -8 11 C-8 11.99 -8 12.98 -8 14 C-8.99 14.33 -9.98 14.66 -11 15 C-11 13.35 -11 11.7 -11 10 C-8.07175348 9.02391783 -6.04386724 8.91773332 -3 9 Z " fill="#67452A" transform="translate(1495,1030)"/>
<path d="M0 0 C0.99 0.33 1.98 0.66 3 1 C2.3972388 4.37546272 1.39420894 6.52323213 -1 9 C-4.1875 10.25 -4.1875 10.25 -7 11 C-7 10.34 -7 9.68 -7 9 C-8.32 9 -9.64 9 -11 9 C-11 8.01 -11 7.02 -11 6 C-10.01 6 -9.02 6 -8 6 C-8 6.66 -8 7.32 -8 8 C-7.34 8 -6.68 8 -6 8 C-6 7.01 -6 6.02 -6 5 C-5.01 5 -4.02 5 -3 5 C-3 4.34 -3 3.68 -3 3 C-2.01 3 -1.02 3 0 3 C0 2.01 0 1.02 0 0 Z " fill="#C0C9E3" transform="translate(972,1027)"/>
<path d="M0 0 C2.64 0 5.28 0 8 0 C7.625 1.9375 7.625 1.9375 7 4 C4.0780231 5.46098845 1.50106525 5.11134901 -1.7578125 5.09765625 C-2.75238968 5.09553383 -2.75238968 5.09553383 -3.76705933 5.09336853 C-5.88641863 5.08776754 -8.00567259 5.075215 -10.125 5.0625 C-11.56119639 5.05748512 -12.99739444 5.05292219 -14.43359375 5.04882812 C-17.95576345 5.03779782 -21.47787145 5.02053259 -25 5 C-25 4.67 -25 4.34 -25 4 C-16.42 3.67 -7.84 3.34 1 3 C1.33 2.34 1.66 1.68 2 1 C1.34 0.67 0.68 0.34 0 0 Z " fill="#B0CFDF" transform="translate(1465,1075)"/>
<path d="M0 0 C0.625 2.375 0.625 2.375 1 5 C0.34 5.66 -0.32 6.32 -1 7 C-4.125 6.625 -4.125 6.625 -7 6 C-7 4.02 -7 2.04 -7 0 C-4.3333581 -1.33332095 -2.83319697 -0.67102033 0 0 Z " fill="#ADD4EE" transform="translate(13,1054)"/>
<path d="M0 0 C0.66 1.32 1.32 2.64 2 4 C2.99 3.67 3.98 3.34 5 3 C4.814375 3.5775 4.62875 4.155 4.4375 4.75 C3.95295981 7.24192097 4.10467265 8.63959152 5 11 C5.66 11.33 6.32 11.66 7 12 C6.01 12 5.02 12 4 12 C4 11.01 4 10.02 4 9 C3.01 9 2.02 9 1 9 C1 8.01 1 7.02 1 6 C0.34 6 -0.32 6 -1 6 C-1 5.01 -1 4.02 -1 3 C-5.62 3 -10.24 3 -15 3 C-15 2.67 -15 2.34 -15 2 C-10.05 1.34 -5.1 0.68 0 0 Z " fill="#A9C7DC" transform="translate(1502,1021)"/>
<path d="M0 0 C0.99 0 1.98 0 3 0 C3 2.31 3 4.62 3 7 C3.99 7 4.98 7 6 7 C6.33 5.68 6.66 4.36 7 3 C7 4.65 7 6.3 7 8 C5.35 8.33 3.7 8.66 2 9 C2.33 9.33 2.66 9.66 3 10 C3.04080783 11.99958364 3.04254356 14.00045254 3 16 C2.01 16 1.02 16 0 16 C0 10.72 0 5.44 0 0 Z " fill="#A19CAB" transform="translate(1453,1049)"/>
<path d="M0 0 C5.28 0 10.56 0 16 0 C16.33 1.32 16.66 2.64 17 4 C16.01 4 15.02 4 14 4 C14 3.34 14 2.68 14 2 C12.35 2 10.7 2 9 2 C9 2.66 9 3.32 9 4 C8.01 4 7.02 4 6 4 C6 3.34 6 2.68 6 2 C4.35 2 2.7 2 1 2 C1 2.99 1 3.98 1 5 C0.01 5 -0.98 5 -2 5 C-2 6.65 -2 8.3 -2 10 C-2.33 10 -2.66 10 -3 10 C-3 8.02 -3 6.04 -3 4 C-2.01 4 -1.02 4 0 4 C0 2.68 0 1.36 0 0 Z " fill="#C4A5B6" transform="translate(958,1017)"/>
<path d="M0 0 C3.96 0 7.92 0 12 0 C12 0.66 12 1.32 12 2 C10.02 2 8.04 2 6 2 C6 2.99 6 3.98 6 5 C8.31 5 10.62 5 13 5 C9.57905758 7.28062828 8.31812778 7.21925007 4.3125 7.125 C2.82169922 7.09792969 2.82169922 7.09792969 1.30078125 7.0703125 C0.54152344 7.04710937 -0.21773437 7.02390625 -1 7 C-1 6.34 -1 5.68 -1 5 C0.65 5 2.3 5 4 5 C4 3.68 4 2.36 4 1 C2.68 0.67 1.36 0.34 0 0 Z " fill="#03050C" transform="translate(1554,1071)"/>
<path d="M0 0 C1.32 0 2.64 0 4 0 C3.95875 1.11375 3.9175 2.2275 3.875 3.375 C3.58878141 7.04366025 3.58878141 7.04366025 6 9 C5.34 9 4.68 9 4 9 C4 9.66 4 10.32 4 11 C2.68 11 1.36 11 0 11 C0 10.34 0 9.68 0 9 C-0.66 9 -1.32 9 -2 9 C-2 8.01 -2 7.02 -2 6 C-1.34 6 -0.68 6 0 6 C0 4.02 0 2.04 0 0 Z " fill="#C9C9CD" transform="translate(1461,1059)"/>
<path d="M0 0 C1.65 0 3.3 0 5 0 C5 0.66 5 1.32 5 2 C4.01 2 3.02 2 2 2 C2 4.64 2 7.28 2 10 C1.01 10.33 0.02 10.66 -1 11 C-1 11.99 -1 12.98 -1 14 C-4.63 14 -8.26 14 -12 14 C-12 13.67 -12 13.34 -12 13 C-7.545 12.505 -7.545 12.505 -3 12 C-2.34 10.02 -1.68 8.04 -1 6 C-1.66 5.67 -2.32 5.34 -3 5 C-2.01 5 -1.02 5 0 5 C0 3.35 0 1.7 0 0 Z " fill="#9ED0EA" transform="translate(435,1040)"/>
<path d="M0 0 C1.98 0 3.96 0 6 0 C6 0.99 6 1.98 6 3 C4.35 3 2.7 3 1 3 C1 6.63 1 10.26 1 14 C0.01 14 -0.98 14 -2 14 C-2 10.37 -2 6.74 -2 3 C-1.34 3 -0.68 3 0 3 C0 2.01 0 1.02 0 0 Z " fill="#2E323C" transform="translate(788,1009)"/>
<path d="M0 0 C0.66 0 1.32 0 2 0 C2 0.66 2 1.32 2 2 C3.32 2 4.64 2 6 2 C6 3.98 6 5.96 6 8 C4.02 8 2.04 8 0 8 C0 7.01 0 6.02 0 5 C-0.99 5 -1.98 5 -3 5 C-3 4.01 -3 3.02 -3 2 C-2.01 2 -1.02 2 0 2 C0 1.34 0 0.68 0 0 Z " fill="#DADFDF" transform="translate(975,1068)"/>
<path d="M0 0 C0.33 0 0.66 0 1 0 C1 3.63 1 7.26 1 11 C1.66 11 2.32 11 3 11 C3 11.66 3 12.32 3 13 C3.99 13 4.98 13 6 13 C6 14.98 6 16.96 6 19 C2.66459569 17.33229785 0.5483023 15.4815239 -0.7734375 11.91015625 C-1.93974094 7.35854346 -2.46733113 4.24929251 0 0 Z " fill="#9EBBCD" transform="translate(1546,1057)"/>
<path d="M0 0 C0.33 0 0.66 0 1 0 C1.33 3.3 1.66 6.6 2 10 C2.99 10.33 3.98 10.66 5 11 C4.67 11.99 4.34 12.98 4 14 C3.34 14 2.68 14 2 14 C2 15.32 2 16.64 2 18 C1.34 18 0.68 18 0 18 C0 16.35 0 14.7 0 13 C-2.97 13 -5.94 13 -9 13 C-9 12.01 -9 11.02 -9 10 C-8.34 10 -7.68 10 -7 10 C-7 10.66 -7 11.32 -7 12 C-5.02 11.67 -3.04 11.34 -1 11 C-0.67 7.37 -0.34 3.74 0 0 Z " fill="#BBE2F9" transform="translate(27,1045)"/>
<path d="M0 0 C0.33 0 0.66 0 1 0 C1 1.65 1 3.3 1 5 C2.32 5.33 3.64 5.66 5 6 C4.67 9.3 4.34 12.6 4 16 C3.67 15.34 3.34 14.68 3 14 C2.01 14 1.02 14 0 14 C-1.33257403 4.58997722 -1.33257403 4.58997722 0 0 Z " fill="#738C9F" transform="translate(414,1040)"/>
<path d="M0 0 C0.66 0 1.32 0 2 0 C2 0.66 2 1.32 2 2 C2.66 2 3.32 2 4 2 C4 2.99 4 3.98 4 5 C3.34 5 2.68 5 2 5 C2 5.99 2 6.98 2 8 C0.02 8 -1.96 8 -4 8 C-4 6.02 -4 4.04 -4 2 C-2.68 2 -1.36 2 0 2 C0 1.34 0 0.68 0 0 Z " fill="#E1E3E5" transform="translate(1446,1068)"/>
<path d="M0 0 C0.66 0 1.32 0 2 0 C2 4.29 2 8.58 2 13 C-1.3 13 -4.6 13 -8 13 C-4.77208445 10.8480563 -3.71599191 10.79913557 0 11 C0 9.02 0 7.04 0 5 C-0.99 5 -1.98 5 -3 5 C-3 4.34 -3 3.68 -3 3 C-2.01 3 -1.02 3 0 3 C0 2.01 0 1.02 0 0 Z " fill="#01060D" transform="translate(981,1065)"/>
<path d="M0 0 C1.32 0 2.64 0 4 0 C4.02698189 1.62490954 4.04638757 3.24994633 4.0625 4.875 C4.07410156 5.77992187 4.08570313 6.68484375 4.09765625 7.6171875 C4 10 4 10 3 12 C1.68 12 0.36 12 -1 12 C-1 14.31 -1 16.62 -1 19 C-1.66 19 -2.32 19 -3 19 C-3 16.36 -3 13.72 -3 11 C-1.35 11 0.3 11 2 11 C2 8.03 2 5.06 2 2 C1.34 2 0.68 2 0 2 C0 1.34 0 0.68 0 0 Z " fill="#F9FAFE" transform="translate(1553,1046)"/>
<path d="M0 0 C0.33 0 0.66 0 1 0 C1 4.62 1 9.24 1 14 C0.01 14 -0.98 14 -2 14 C-2 14.99 -2 15.98 -2 17 C-2.99 17 -3.98 17 -5 17 C-5.33 17.66 -5.66 18.32 -6 19 C-6.33 17.68 -6.66 16.36 -7 15 C-7.33 15.66 -7.66 16.32 -8 17 C-8 16.01 -8 15.02 -8 14 C-8.99 13.67 -9.98 13.34 -11 13 C-11 12.34 -11 11.68 -11 11 C-9.9275 11.33 -8.855 11.66 -7.75 12 C-4.00268399 13.1717751 -4.00268399 13.1717751 0 13 C0 8.71 0 4.42 0 0 Z " fill="#4D4F53" transform="translate(1509,1033)"/>
<path d="M0 0 C3.125 -0.1875 3.125 -0.1875 6 0 C6 0.66 6 1.32 6 2 C4.68 2.33 3.36 2.66 2 3 C1.67 6.3 1.34 9.6 1 13 C0.01 13 -0.98 13 -2 13 C-2.05416188 11.39620659 -2.09286638 9.79188594 -2.125 8.1875 C-2.14820313 7.29417969 -2.17140625 6.40085937 -2.1953125 5.48046875 C-2 3 -2 3 0 0 Z " fill="#242730" transform="translate(1560,1043)"/>
<path d="M0 0 C1.98 0 3.96 0 6 0 C6 4.62 6 9.24 6 14 C5.01 14 4.02 14 3 14 C3 11.36 3 8.72 3 6 C3.66 6 4.32 6 5 6 C5 5.01 5 4.02 5 3 C3.35 3 1.7 3 0 3 C0 2.01 0 1.02 0 0 Z " fill="#767A8A" transform="translate(780,1009)"/>
<path d="M0 0 C0.33 0 0.66 0 1 0 C1 4.29 1 8.58 1 13 C8.92 13 16.84 13 25 13 C25 13.33 25 13.66 25 14 C16.09 14 7.18 14 -2 14 C-2 13.01 -2 12.02 -2 11 C-1.34 11 -0.68 11 0 11 C0 7.37 0 3.74 0 0 Z " fill="#4B616D" transform="translate(1439,1065)"/>
<path d="M0 0 C0.66 0 1.32 0 2 0 C2 0.66 2 1.32 2 2 C2.99 2 3.98 2 5 2 C5 3.98 5 5.96 5 8 C3.35 8 1.7 8 0 8 C0 7.01 0 6.02 0 5 C-0.99 5 -1.98 5 -3 5 C-3 4.01 -3 3.02 -3 2 C-2.01 2 -1.02 2 0 2 C0 1.34 0 0.68 0 0 Z " fill="#E7EBEA" transform="translate(1569,1068)"/>
<path d="M0 0 C0.33 0 0.66 0 1 0 C1 1.98 1 3.96 1 6 C0.01 6 -0.98 6 -2 6 C-2 6.66 -2 7.32 -2 8 C-1.01 8.33 -0.02 8.66 1 9 C1 10.98 1 12.96 1 15 C0.01 15 -0.98 15 -2 15 C-2 16.65 -2 18.3 -2 20 C-2.33 20 -2.66 20 -3 20 C-3 18.02 -3 16.04 -3 14 C-2.01 14 -1.02 14 0 14 C0 13.34 0 12.68 0 12 C-0.99 12 -1.98 12 -3 12 C-3 11.01 -3 10.02 -3 9 C-3.66 9 -4.32 9 -5 9 C-4.67 7.68 -4.34 6.36 -4 5 C-2.68 5 -1.36 5 0 5 C0 3.35 0 1.7 0 0 Z " fill="#7C8E9E" transform="translate(774,1023)"/>
<path d="M0 0 C4.29 0 8.58 0 13 0 C13 1.98 13 3.96 13 6 C12.34 6 11.68 6 11 6 C11 4.68 11 3.36 11 2 C9.68 2 8.36 2 7 2 C7 3.32 7 4.64 7 6 C6.34 6 5.68 6 5 6 C5 4.68 5 3.36 5 2 C3.35 2 1.7 2 0 2 C0 1.34 0 0.68 0 0 Z " fill="#020308" transform="translate(781,1038)"/>
<path d="M0 0 C0.66 0 1.32 0 2 0 C2 0.99 2 1.98 2 3 C2.99 3 3.98 3 5 3 C5 3.66 5 4.32 5 5 C4.01 5 3.02 5 2 5 C2 6.98 2 8.96 2 11 C3.65 11.33 5.3 11.66 7 12 C7 12.33 7 12.66 7 13 C4.69 13 2.38 13 0 13 C0 8.71 0 4.42 0 0 Z " fill="#01050C" transform="translate(1440,1065)"/>
<path d="M0 0 C4.29 0 8.58 0 13 0 C13 2.31 13 4.62 13 7 C11.35 6.67 9.7 6.34 8 6 C8.99 5.67 9.98 5.34 11 5 C11 4.01 11 3.02 11 2 C9.68 2 8.36 2 7 2 C6.67 2.99 6.34 3.98 6 5 C6 3.68 6 2.36 6 1 C4.02 1.33 2.04 1.66 0 2 C0 1.34 0 0.68 0 0 Z " fill="#02040B" transform="translate(1451,1071)"/>
<path d="M0 0 C1.65 0 3.3 0 5 0 C5.33 3.63 5.66 7.26 6 11 C5.01 11 4.02 11 3 11 C2.34 9.35 1.68 7.7 1 6 C0.67 6 0.34 6 0 6 C0 4.02 0 2.04 0 0 Z " fill="#DBDAEB" transform="translate(1459,1046)"/>
<path d="M0 0 C0.99 0.33 1.98 0.66 3 1 C3 3.31 3 5.62 3 8 C1.02 8 -0.96 8 -3 8 C-3 6.02 -3 4.04 -3 2 C-2.34 2 -1.68 2 -1 2 C-0.67 1.34 -0.34 0.68 0 0 Z " fill="#A9CBE1" transform="translate(429,1037)"/>
<path d="M0 0 C2.1875 0.3125 2.1875 0.3125 4 1 C3.2884375 1.6496875 3.2884375 1.6496875 2.5625 2.3125 C0.76313043 4.02309613 0.76313043 4.02309613 0 7 C-3.0625 8.6875 -3.0625 8.6875 -6 10 C-6 8.35 -6 6.7 -6 5 C-5.01 5 -4.02 5 -3 5 C-3 4.34 -3 3.68 -3 3 C-1.75 1.3125 -1.75 1.3125 0 0 Z " fill="#AFCEE3" transform="translate(789,1060)"/>
<path d="M0 0 C0.99 0 1.98 0 3 0 C3 3.96 3 7.92 3 12 C2.01 12 1.02 12 0 12 C0 8.04 0 4.08 0 0 Z " fill="#121921" transform="translate(797,1023)"/>
<path d="M0 0 C0.99 0 1.98 0 3 0 C3 3.3 3 6.6 3 10 C2.01 10 1.02 10 0 10 C0 9.01 0 8.02 0 7 C-0.66 7 -1.32 7 -2 7 C-2 6.34 -2 5.68 -2 5 C-1.34 5 -0.68 5 0 5 C0 3.35 0 1.7 0 0 Z " fill="#1D2329" transform="translate(1445,1057)"/>
<path d="M0 0 C0.99 0 1.98 0 3 0 C3 0.99 3 1.98 3 3 C3.99 3 4.98 3 6 3 C6 5.97 6 8.94 6 12 C5.67 12 5.34 12 5 12 C5 9.36 5 6.72 5 4 C4.34 4 3.68 4 3 4 C3 5.65 3 7.3 3 9 C2.01 9 1.02 9 0 9 C0 6.03 0 3.06 0 0 Z " fill="#624939" transform="translate(1501,1032)"/>
<path d="M0 0 C0.99 0 1.98 0 3 0 C3 3.63 3 7.26 3 11 C2.01 11 1.02 11 0 11 C0 7.37 0 3.74 0 0 Z " fill="#263344" transform="translate(1467,1057)"/>
<path d="M0 0 C0.66 0 1.32 0 2 0 C2.33 0.66 2.66 1.32 3 2 C3.99 2 4.98 2 6 2 C6 4.62113708 5.68707555 6.50935112 5 9 C4.34 9 3.68 9 3 9 C3 8.01 3 7.02 3 6 C2.01 6 1.02 6 0 6 C0 4.02 0 2.04 0 0 Z " fill="#BEDDEE" transform="translate(418,1048)"/>
<path d="M0 0 C0.99 0 1.98 0 3 0 C3 1.98 3 3.96 3 6 C2.34 6 1.68 6 1 6 C1 6.99 1 7.98 1 9 C-0.32 9 -1.64 9 -3 9 C-3 7.68 -3 6.36 -3 5 C-2.01 5 -1.02 5 0 5 C0 3.35 0 1.7 0 0 Z " fill="#606161" transform="translate(791,1026)"/>
<path d="M0 0 C0 1.65 0 3.3 0 5 C-0.99 5.495 -0.99 5.495 -2 6 C-2.33 6.99 -2.66 7.98 -3 9 C-4.98 8.34 -6.96 7.68 -9 7 C-7.68 6.67 -6.36 6.34 -5 6 C-4.67 4.35 -4.34 2.7 -4 1 C-1 0 -1 0 0 0 Z " fill="#8B6447" transform="translate(1495,1030)"/>
<path d="M0 0 C0.99 0 1.98 0 3 0 C3 3.63 3 7.26 3 11 C2.01 11 1.02 11 0 11 C0 7.37 0 3.74 0 0 Z " fill="#1A1928" transform="translate(794,1012)"/>
<path d="M0 0 C0.99 0 1.98 0 3 0 C3 1.65 3 3.3 3 5 C3.66 5 4.32 5 5 5 C5 7 5 7 3.625 8.625 C2 10 2 10 0 10 C0 6.7 0 3.4 0 0 Z " fill="#0D1419" transform="translate(1569,1057)"/>
<path d="M0 0 C0.99 0 1.98 0 3 0 C3 1.98 3 3.96 3 6 C2.01 6 1.02 6 0 6 C0 6.99 0 7.98 0 9 C-0.99 9 -1.98 9 -3 9 C-3 7.68 -3 6.36 -3 5 C-2.01 5 -1.02 5 0 5 C0 3.35 0 1.7 0 0 Z " fill="#555657" transform="translate(398,1059)"/>
<path d="M0 0 C0.66 0 1.32 0 2 0 C2.33 3.63 2.66 7.26 3 11 C3.66 11 4.32 11 5 11 C5 11.66 5 12.32 5 13 C4.01 13 3.02 13 2 13 C2 12.34 2 11.68 2 11 C1.34 11 0.68 11 0 11 C0 7.37 0 3.74 0 0 Z " fill="#131A25" transform="translate(1547,1057)"/>
<path d="M0 0 C0.99 0 1.98 0 3 0 C3 3.3 3 6.6 3 10 C2.01 10 1.02 10 0 10 C0 6.7 0 3.4 0 0 Z " fill="#28313E" transform="translate(1566,1046)"/>
<path d="M0 0 C0.33 0 0.66 0 1 0 C1 2.64 1 5.28 1 8 C-0.98 8 -2.96 8 -5 8 C-3.6299034 5.0490227 -2.06764583 2.51713405 0 0 Z " fill="#AED7ED" transform="translate(26,1048)"/>
<path d="M0 0 C0.99 0 1.98 0 3 0 C3 3.3 3 6.6 3 10 C2.01 10 1.02 10 0 10 C0 6.7 0 3.4 0 0 Z " fill="#080D17" transform="translate(972,1046)"/>
<path d="M0 0 C1.65 0 3.3 0 5 0 C5.08096803 1.45742463 5.13917774 2.91612807 5.1875 4.375 C5.22230469 5.18710938 5.25710938 5.99921875 5.29296875 6.8359375 C5.19628906 7.55007813 5.09960938 8.26421875 5 9 C4.01 9.66 3.02 10.32 2 11 C2 8.36 2 5.72 2 3 C1.34 3 0.68 3 0 3 C0 2.01 0 1.02 0 0 Z " fill="#EEECF9" transform="translate(967,1046)"/>
<path d="M0 0 C1.32 0 2.64 0 4 0 C3.45773019 3.79588866 1.79872437 5.47211993 -1 8 C-1.33 6.35 -1.66 4.7 -2 3 C-1.34 3 -0.68 3 0 3 C0 2.01 0 1.02 0 0 Z " fill="#B0D0E8" transform="translate(404,1068)"/>
<path d="M0 0 C0.66 0 1.32 0 2 0 C2 3.3 2 6.6 2 10 C1.34 10 0.68 10 0 10 C0 9.34 0 8.68 0 8 C-0.99 8 -1.98 8 -3 8 C-3 7.01 -3 6.02 -3 5 C-2.01 5 -1.02 5 0 5 C0 3.35 0 1.7 0 0 Z " fill="#0D1017" transform="translate(382,1057)"/>
<path d="M0 0 C0.33 0.66 0.66 1.32 1 2 C1.66 2 2.32 2 3 2 C3 4.97 3 7.94 3 11 C2.01 11 1.02 11 0 11 C0 7.37 0 3.74 0 0 Z " fill="#BAB5CB" transform="translate(1552,1046)"/>
<path d="M0 0 C0.66 0 1.32 0 2 0 C2 3.63 2 7.26 2 11 C0 11 0 11 -1.625 9.625 C-3 8 -3 8 -3 6 C-2.01 6 -1.02 6 0 6 C0 4.02 0 2.04 0 0 Z " fill="#090E16" transform="translate(775,1023)"/>
<path d="M0 0 C2.97 0 5.94 0 9 0 C9 0.99 9 1.98 9 3 C7.02 3 5.04 3 3 3 C3 2.34 3 1.68 3 1 C2.34 1 1.68 1 1 1 C1 1.66 1 2.32 1 3 C-0.98 3 -2.96 3 -5 3 C-5 2.67 -5 2.34 -5 2 C-3.35 2 -1.7 2 0 2 C0 1.34 0 0.68 0 0 Z " fill="#B9BBBF" transform="translate(384,1073)"/>
<path d="M0 0 C2.64 0 5.28 0 8 0 C7.01 0.495 7.01 0.495 6 1 C6.33 1.99 6.66 2.98 7 4 C4.69 4 2.38 4 0 4 C0 2.68 0 1.36 0 0 Z " fill="#7FB8CE" transform="translate(950,1075)"/>
<path d="M0 0 C4.62 0 9.24 0 14 0 C14 0.33 14 0.66 14 1 C9.71 1 5.42 1 1 1 C1 3.64 1 6.28 1 9 C0.01 8.67 -0.98 8.34 -2 8 C-2 7.34 -2 6.68 -2 6 C-1.34 6 -0.68 6 0 6 C0 4.02 0 2.04 0 0 Z " fill="#60737A" transform="translate(958,1070)"/>
<path d="M0 0 C0.66 0.33 1.32 0.66 2 1 C1.67 1.99 1.34 2.98 1 4 C0.34 4 -0.32 4 -1 4 C-1 4.66 -1 5.32 -1 6 C-4.63 5.67 -8.26 5.34 -12 5 C-12 4.67 -12 4.34 -12 4 C-9.36 4 -6.72 4 -4 4 C-4 3.34 -4 2.68 -4 2 C-2.68 2 -1.36 2 0 2 C0 1.34 0 0.68 0 0 Z " fill="#191513" transform="translate(1502,1048)"/>
<path d="M0 0 C0.66 0 1.32 0 2 0 C2 2.64 2 5.28 2 8 C1.34 8 0.68 8 0 8 C0 8.66 0 9.32 0 10 C-0.99 10 -1.98 10 -3 10 C-2.67 8.68 -2.34 7.36 -2 6 C-1.34 6 -0.68 6 0 6 C0 4.02 0 2.04 0 0 Z " fill="#7D6553" transform="translate(1504,1036)"/>
<path d="M0 0 C0.66 0 1.32 0 2 0 C2 1.65 2 3.3 2 5 C2.99 5 3.98 5 5 5 C5 5.66 5 6.32 5 7 C4.01 7 3.02 7 2 7 C2 7.99 2 8.98 2 10 C1.34 10 0.68 10 0 10 C0 6.7 0 3.4 0 0 Z " fill="#04080D" transform="translate(975,1057)"/>
<path d="M0 0 C0.66 0.33 1.32 0.66 2 1 C2 3.64 2 6.28 2 9 C1.01 9 0.02 9 -1 9 C-1.33 6.36 -1.66 3.72 -2 1 C-1.34 0.67 -0.68 0.34 0 0 Z " fill="#818184" transform="translate(1561,1056)"/>
<path d="M0 0 C0.66 0 1.32 0 2 0 C2 0.99 2 1.98 2 3 C2.99 3 3.98 3 5 3 C5 3.66 5 4.32 5 5 C4.01 5 3.02 5 2 5 C2 6.65 2 8.3 2 10 C1.34 10 0.68 10 0 10 C0 6.7 0 3.4 0 0 Z " fill="#020411" transform="translate(769,1032)"/>
<path d="M0 0 C0.33 0 0.66 0 1 0 C1 3.3 1 6.6 1 10 C0.01 10 -0.98 10 -2 10 C-2.33 11.32 -2.66 12.64 -3 14 C-3.33 12.35 -3.66 10.7 -4 9 C-3.01 8.67 -2.02 8.34 -1 8 C-0.67 5.36 -0.34 2.72 0 0 Z " fill="#B0CCE2" transform="translate(776,1013)"/>
<path d="M0 0 C2.64 0 5.28 0 8 0 C7.6875 1.9375 7.6875 1.9375 7 4 C6.01 4.33 5.02 4.66 4 5 C3.01 4.34 2.02 3.68 1 3 C1.33 2.34 1.66 1.68 2 1 C1.34 0.67 0.68 0.34 0 0 Z " fill="#83B8CF" transform="translate(1465,1075)"/>
<path d="M0 0 C0.33 0 0.66 0 1 0 C1.29035556 3.38102922 1.4386474 6.62822839 1 10 C-1.375 12.625 -1.375 12.625 -4 14 C-4.66 14 -5.32 14 -6 14 C-6 13.34 -6 12.68 -6 12 C-5.01 12 -4.02 12 -3 12 C-3 11.01 -3 10.02 -3 9 C-2.34 9 -1.68 9 -1 9 C-0.67 6.03 -0.34 3.06 0 0 Z " fill="#B9D7ED" transform="translate(1471,1059)"/>
<path d="M0 0 C0.66 0 1.32 0 2 0 C2 2.97 2 5.94 2 9 C1.01 9.495 1.01 9.495 0 10 C0 8.35 0 6.7 0 5 C-0.99 5 -1.98 5 -3 5 C-3 4.34 -3 3.68 -3 3 C-2.01 3 -1.02 3 0 3 C0 2.01 0 1.02 0 0 Z " fill="#01060B" transform="translate(1575,1065)"/>
<path d="M0 0 C1.32 0 2.64 0 4 0 C4 1.65 4 3.3 4 5 C3.34 5 2.68 5 2 5 C2 5.66 2 6.32 2 7 C1.34 7 0.68 7 0 7 C-0.38133299 5.0085944 -0.71325582 3.00720923 -1 1 C-0.67 0.67 -0.34 0.34 0 0 Z " fill="#FCFCFC" transform="translate(962,1057)"/>
<path d="M0 0 C0.33 0 0.66 0 1 0 C1 3.3 1 6.6 1 10 C1.66 10.33 2.32 10.66 3 11 C2.34 11 1.68 11 1 11 C1 14.3 1 17.6 1 21 C0.67 21 0.34 21 0 21 C0 17.7 0 14.4 0 11 C-0.66 10.67 -1.32 10.34 -2 10 C-1.34 10 -0.68 10 0 10 C0 6.7 0 3.4 0 0 Z " fill="#78858F" transform="translate(955,1046)"/>
<path d="M0 0 C0.99 0 1.98 0 3 0 C3 0.99 3 1.98 3 3 C-2.28 3 -7.56 3 -13 3 C-13.33 3.66 -13.66 4.32 -14 5 C-14 4.01 -14 3.02 -14 2 C-9.38 2 -4.76 2 0 2 C0 1.34 0 0.68 0 0 Z " fill="#6A6C70" transform="translate(794,1035)"/>
<path d="M0 0 C0.99 0.33 1.98 0.66 3 1 C2.67 2.32 2.34 3.64 2 5 C0.865625 5.12375 -0.26875 5.2475 -1.4375 5.375 C-3.2009375 5.684375 -3.2009375 5.684375 -5 6 C-5.33 6.66 -5.66 7.32 -6 8 C-6 7.01 -6 6.02 -6 5 C-5.01 5 -4.02 5 -3 5 C-3 4.34 -3 3.68 -3 3 C-2.01 3 -1.02 3 0 3 C0 2.01 0 1.02 0 0 Z " fill="#BEADBC" transform="translate(972,1027)"/>
<path d="M0 0 C0.99 0 1.98 0 3 0 C3 0.99 3 1.98 3 3 C2.34 3 1.68 3 1 3 C1.33 3.763125 1.66 4.52625 2 5.3125 C3 8 3 8 3 11 C2.01 11 1.02 11 0 11 C0 7.37 0 3.74 0 0 Z " fill="#618293" transform="translate(401,1068)"/>
<path d="M0 0 C0.33 0.66 0.66 1.32 1 2 C1.66 2 2.32 2 3 2 C3 2.99 3 3.98 3 5 C4.98 5 6.96 5 9 5 C9 5.33 9 5.66 9 6 C7.35 6 5.7 6 4 6 C3.67 6.66 3.34 7.32 3 8 C3 7.34 3 6.68 3 6 C2.01 6 1.02 6 0 6 C0 5.01 0 4.02 0 3 C-0.66 2.67 -1.32 2.34 -2 2 C-1.34 2 -0.68 2 0 2 C0 1.34 0 0.68 0 0 Z " fill="#A6AAAE" transform="translate(1442,1062)"/>
<path d="M0 0 C0.33 0 0.66 0 1 0 C1 3.3 1 6.6 1 10 C1.66 10.33 2.32 10.66 3 11 C2.34 11 1.68 11 1 11 C1 13.97 1 16.94 1 20 C0.67 20 0.34 20 0 20 C0 17.03 0 14.06 0 11 C-0.66 10.67 -1.32 10.34 -2 10 C-1.34 10 -0.68 10 0 10 C0 6.7 0 3.4 0 0 Z " fill="#788691" transform="translate(1549,1046)"/>
<path d="M0 0 C0.99 0 1.98 0 3 0 C3 0.66 3 1.32 3 2 C3.66 2 4.32 2 5 2 C5.33 1.34 5.66 0.68 6 0 C6 0.99 6 1.98 6 3 C2.71303767 3.79953138 1.28976808 4.09658936 -2 3 C-2 4.98 -2 6.96 -2 9 C-2.33 9 -2.66 9 -3 9 C-3 6.69 -3 4.38 -3 2 C-2.01 2 -1.02 2 0 2 C0 1.34 0 0.68 0 0 Z " fill="#685444" transform="translate(1484,1033)"/>
<path d="M0 0 C1.02852708 3.08558124 1 4.77356651 1 8 C1.66 8.33 2.32 8.66 3 9 C2.01 9 1.02 9 0 9 C0 8.01 0 7.02 0 6 C-0.99 6 -1.98 6 -3 6 C-3 5.01 -3 4.02 -3 3 C-3.66 3 -4.32 3 -5 3 C-4.67 2.34 -4.34 1.68 -4 1 C-1.9375 0.375 -1.9375 0.375 0 0 Z " fill="#8A9EAA" transform="translate(1506,1024)"/>
<path d="M0 0 C1.32 0.33 2.64 0.66 4 1 C4 3.97 4 6.94 4 10 C2.68 10 1.36 10 0 10 C0.66 9.67 1.32 9.34 2 9 C2 6.36 2 3.72 2 1 C1.34 0.67 0.68 0.34 0 0 Z " fill="#C0CBDE" transform="translate(973,1019)"/>
<path d="M0 0 C3.3 0 6.6 0 10 0 C9.01 0.33 8.02 0.66 7 1 C7 2.32 7 3.64 7 5 C6.34 5 5.68 5 5 5 C5 4.01 5 3.02 5 2 C3.35 2 1.7 2 0 2 C0 1.34 0 0.68 0 0 Z " fill="#06060A" transform="translate(388,1071)"/>
<path d="M0 0 C0.99 0 1.98 0 3 0 C3 0.99 3 1.98 3 3 C-2.61 3 -8.22 3 -14 3 C-14 2.67 -14 2.34 -14 2 C-9.38 2 -4.76 2 0 2 C0 1.34 0 0.68 0 0 Z " fill="#43617C" transform="translate(437,1054)"/>
<path d="M0 0 C2.97 0 5.94 0 9 0 C9 0.99 9 1.98 9 3 C7.02 3 5.04 3 3 3 C3 2.34 3 1.68 3 1 C2.34 1 1.68 1 1 1 C0.67 1.66 0.34 2.32 0 3 C0 2.01 0 1.02 0 0 Z " fill="#BABEC0" transform="translate(777,1040)"/>
<path d="M0 0 C0.66 0.33 1.32 0.66 2 1 C2 2.32 2 3.64 2 5 C0.02 5 -1.96 5 -4 5 C-4.33 4.34 -4.66 3.68 -5 3 C-2.625 1.4375 -2.625 1.4375 0 0 Z " fill="#C12838" transform="translate(966,1024)"/>
<path d="M0 0 C1.32 0 2.64 0 4 0 C4 0.66 4 1.32 4 2 C3.34 2 2.68 2 2 2 C2 4.64 2 7.28 2 10 C3.98 10 5.96 10 8 10 C8 10.33 8 10.66 8 11 C5.69 11 3.38 11 1 11 C0.67 7.37 0.34 3.74 0 0 Z " fill="#EEEDF5" transform="translate(781,1013)"/>
<path d="M0 0 C0.33 0 0.66 0 1 0 C1 3.3 1 6.6 1 10 C1.66 10 2.32 10 3 10 C3 11.32 3 12.64 3 14 C2.01 14 1.02 14 0 14 C0 9.38 0 4.76 0 0 Z " fill="#8BAAB9" transform="translate(983,1065)"/>
<path d="M0 0 C1.65 0 3.3 0 5 0 C4.01 0.33 3.02 0.66 2 1 C2 2.32 2 3.64 2 5 C2.99 5.33 3.98 5.66 5 6 C3.35 6.33 1.7 6.66 0 7 C0 4.69 0 2.38 0 0 Z " fill="#00030B" transform="translate(959,1071)"/>
<path d="M0 0 C4.95 0.99 4.95 0.99 10 2 C10 2.66 10 3.32 10 4 C3.375 4.125 3.375 4.125 0 3 C0 2.01 0 1.02 0 0 Z " fill="#B33D51" transform="translate(958,1027)"/>
<path d="M0 0 C2.475 0.495 2.475 0.495 5 1 C5 2.32 5 3.64 5 5 C3.35 5 1.7 5 0 5 C0 3.35 0 1.7 0 0 Z " fill="#595C66" transform="translate(1553,1071)"/>
<path d="M0 0 C0.66 0 1.32 0 2 0 C2 0.99 2 1.98 2 3 C2.66 3 3.32 3 4 3 C4 3.66 4 4.32 4 5 C3.34 5 2.68 5 2 5 C2 6.98 2 8.96 2 11 C1.67 11 1.34 11 1 11 C0.67 7.37 0.34 3.74 0 0 Z " fill="#15191E" transform="translate(377,1065)"/>
<path d="M0 0 C0.99 0 1.98 0 3 0 C3 1.98 3 3.96 3 6 C3.66 6.33 4.32 6.66 5 7 C3.68 6.67 2.36 6.34 1 6 C1 5.34 1 4.68 1 4 C0.34 4 -0.32 4 -1 4 C-0.67 2.68 -0.34 1.36 0 0 Z " fill="#788695" transform="translate(769,1054)"/>
<path d="M0 0 C0 1.65 0 3.3 0 5 C-0.99 5 -1.98 5 -3 5 C-3 5.66 -3 6.32 -3 7 C-3.66 7 -4.32 7 -5 7 C-5 3 -5 3 -3.625 1.25 C-2 0 -2 0 0 0 Z " fill="#B7D1E3" transform="translate(1445,1057)"/>
<path d="M0 0 C1.65 0 3.3 0 5 0 C5 0.99 5 1.98 5 3 C4.34 3 3.68 3 3 3 C3 3.66 3 4.32 3 5 C2.01 5 1.02 5 0 5 C0 3.35 0 1.7 0 0 Z " fill="#48535D" transform="translate(786,1057)"/>
<path d="M0 0 C0.99 0 1.98 0 3 0 C2 4 2 4 1 8 C0.01 8 -0.98 8 -2 8 C-2 7.01 -2 6.02 -2 5 C-1.34 5 -0.68 5 0 5 C0 3.35 0 1.7 0 0 Z " fill="#5E3921" transform="translate(1495,1030)"/>
<path d="M0 0 C0.33 0 0.66 0 1 0 C1 3.63 1 7.26 1 11 C1.66 11 2.32 11 3 11 C3 11.99 3 12.98 3 14 C2.01 14 1.02 14 0 14 C0 9.38 0 4.76 0 0 Z " fill="#7DA1AE" transform="translate(1577,1065)"/>
<path d="M0 0 C0.33 0 0.66 0 1 0 C1 4.62 1 9.24 1 14 C0.01 14 -0.98 14 -2 14 C-2 13.01 -2 12.02 -2 11 C-1.34 11 -0.68 11 0 11 C0 7.37 0 3.74 0 0 Z " fill="#6B90A2" transform="translate(1439,1065)"/>
<path d="M0 0 C0.66 0 1.32 0 2 0 C2 1.65 2 3.3 2 5 C1.34 5 0.68 5 0 5 C0 5.99 0 6.98 0 8 C-0.99 8 -1.98 8 -3 8 C-3 7.01 -3 6.02 -3 5 C-2.34 4.67 -1.68 4.34 -1 4 C-0.34786708 1.97536745 -0.34786708 1.97536745 0 0 Z " fill="#323133" transform="translate(1462,1060)"/>
<path d="M0 0 C0.99 0 1.98 0 3 0 C3 1.98 3 3.96 3 6 C2.01 6 1.02 6 0 6 C0 7.65 0 9.3 0 11 C-0.33 11 -0.66 11 -1 11 C-1 9.02 -1 7.04 -1 5 C-0.01 5 0.98 5 2 5 C2 4.34 2 3.68 2 3 C1.34 3 0.68 3 0 3 C0 2.01 0 1.02 0 0 Z " fill="#B0B1B5" transform="translate(772,1032)"/>
<path d="M0 0 C1.32 0.66 2.64 1.32 4 2 C3.01 2 2.02 2 1 2 C1 2.99 1 3.98 1 5 C0.34 5 -0.32 5 -1 5 C-1 5.99 -1 6.98 -1 8 C-1.99 7.67 -2.98 7.34 -4 7 C-2.68 4.69 -1.36 2.38 0 0 Z " fill="#92ACB9" transform="translate(1483,1025)"/>
<path d="M0 0 C0.33 0 0.66 0 1 0 C1.25 6.625 1.25 6.625 -1 10 C-1.66 9.67 -2.32 9.34 -3 9 C-3 7.68 -3 6.36 -3 5 C-2.01 5 -1.02 5 0 5 C0 3.35 0 1.7 0 0 Z " fill="#E7EAEC" transform="translate(401,1060)"/>
<path d="M0 0 C0.33 0.66 0.66 1.32 1 2 C2.65 2 4.3 2 6 2 C6 1.34 6 0.68 6 0 C6.99 0 7.98 0 9 0 C9 0.99 9 1.98 9 3 C7.35 3 5.7 3 4 3 C3.67 3.66 3.34 4.32 3 5 C3 4.34 3 3.68 3 3 C2.01 3 1.02 3 0 3 C0 2.01 0 1.02 0 0 Z " fill="#553A28" transform="translate(1486,1047)"/>
<path d="M0 0 C1.32 0.33 2.64 0.66 4 1 C3.67 2.65 3.34 4.3 3 6 C2.01 6 1.02 6 0 6 C0 4.02 0 2.04 0 0 Z " fill="#CDE7F8" transform="translate(418,1040)"/>
<path d="M0 0 C1.98 0 3.96 0 6 0 C6 0.99 6 1.98 6 3 C4.02 3 2.04 3 0 3 C0 2.01 0 1.02 0 0 Z " fill="#C6CBCD" transform="translate(1560,1073)"/>
<path d="M0 0 C1.98 0 3.96 0 6 0 C6 0.99 6 1.98 6 3 C4.02 3 2.04 3 0 3 C0 2.01 0 1.02 0 0 Z " fill="#CFCFD3" transform="translate(966,1073)"/>
<path d="M0 0 C0.99 0 1.98 0 3 0 C3 1.98 3 3.96 3 6 C2.01 6 1.02 6 0 6 C0 4.02 0 2.04 0 0 Z " fill="#44464A" transform="translate(1552,1059)"/>
<path d="M0 0 C0.99 0 1.98 0 3 0 C3 1.98 3 3.96 3 6 C2.01 6 1.02 6 0 6 C0 4.02 0 2.04 0 0 Z " fill="#4A4A4A" transform="translate(966,1059)"/>
<path d="M0 0 C0.99 0 1.98 0 3 0 C3 1.98 3 3.96 3 6 C2.01 6 1.02 6 0 6 C0 4.02 0 2.04 0 0 Z " fill="#454547" transform="translate(958,1059)"/>
<path d="M0 0 C0.99 0 1.98 0 3 0 C3 1.98 3 3.96 3 6 C2.01 6 1.02 6 0 6 C0 4.02 0 2.04 0 0 Z " fill="#464547" transform="translate(390,1059)"/>
<path d="M0 0 C0.33 0.66 0.66 1.32 1 2 C0.01 2 -0.98 2 -2 2 C-2 2.99 -2 3.98 -2 5 C-2.66 5 -3.32 5 -4 5 C-4 4.34 -4 3.68 -4 3 C-4.99 3 -5.98 3 -7 3 C-7 2.34 -7 1.68 -7 1 C-3.535 0.505 -3.535 0.505 0 0 Z " fill="#832C3E" transform="translate(968,1030)"/>
<path d="M0 0 C1.98 0 3.96 0 6 0 C5.01 0.33 4.02 0.66 3 1 C3 1.99 3 2.98 3 4 C1.68 4 0.36 4 -1 4 C-0.67 2.68 -0.34 1.36 0 0 Z " fill="#9D3643" transform="translate(969,1026)"/>
<path d="M0 0 C1.32 0.33 2.64 0.66 4 1 C3.01 1 2.02 1 1 1 C1 2.32 1 3.64 1 5 C0.34 5 -0.32 5 -1 5 C-1 5.66 -1 6.32 -1 7 C-1.66 7 -2.32 7 -3 7 C-3 5.68 -3 4.36 -3 3 C-2.01 3 -1.02 3 0 3 C0 2.01 0 1.02 0 0 Z " fill="#8D192C" transform="translate(959,1019)"/>
<path d="M0 0 C2.62386487 3.06117568 3 3.73173127 3 8 C1.35 8 -0.3 8 -2 8 C-1.34 7.67 -0.68 7.34 0 7 C0 4.69 0 2.38 0 0 Z " fill="#2A313A" transform="translate(1574,1070)"/>
<path d="M0 0 C0.99 0 1.98 0 3 0 C3.33 1.32 3.66 2.64 4 4 C2.02 4.33 0.04 4.66 -2 5 C-1.34 3.35 -0.68 1.7 0 0 Z " fill="#1C1D22" transform="translate(972,1073)"/>
<path d="M0 0 C1.65 0 3.3 0 5 0 C5 1.98 5 3.96 5 6 C2.24616077 4.62308038 1.48516899 2.63279958 0 0 Z " fill="#A4C7D7" transform="translate(1547,1070)"/>
<path d="M0 0 C0.99 0 1.98 0 3 0 C3 0.66 3 1.32 3 2 C3.66 2.33 4.32 2.66 5 3 C4.34 3 3.68 3 3 3 C3 3.66 3 4.32 3 5 C2.01 5 1.02 5 0 5 C0 3.35 0 1.7 0 0 Z " fill="#5E6A75" transform="translate(783,1060)"/>
<path d="M0 0 C0.99 0 1.98 0 3 0 C3 0.66 3 1.32 3 2 C3.66 2 4.32 2 5 2 C5 2.99 5 3.98 5 5 C4.01 5 3.02 5 2 5 C2 4.34 2 3.68 2 3 C1.34 3 0.68 3 0 3 C0 2.01 0 1.02 0 0 Z " fill="#424850" transform="translate(772,1057)"/>
<path d="M0 0 C1.32 0 2.64 0 4 0 C4 2.97 4 5.94 4 9 C3.67 9 3.34 9 3 9 C2.67 6.69 2.34 4.38 2 2 C1.34 2 0.68 2 0 2 C0 1.34 0 0.68 0 0 Z " fill="#FCFAFE" transform="translate(959,1046)"/>
<path d="M0 0 C1.65 0 3.3 0 5 0 C4.67 2.64 4.34 5.28 4 8 C3.67 8 3.34 8 3 8 C2.87625 7.195625 2.7525 6.39125 2.625 5.5625 C2.315625 4.2940625 2.315625 4.2940625 2 3 C1.34 2.67 0.68 2.34 0 2 C0 1.34 0 0.68 0 0 Z " fill="#F9FAFE" transform="translate(1561,1046)"/>
<path d="M0 0 C1.32 0 2.64 0 4 0 C4 0.66 4 1.32 4 2 C3.01 2.495 3.01 2.495 2 3 C1.59270772 5.32156597 1.25561323 7.6568787 1 10 C0.67 10 0.34 10 0 10 C0 6.7 0 3.4 0 0 Z " fill="#FCFAFE" transform="translate(388,1046)"/>
</svg>
